<svg version="1.2" xmlns="http://www.w3.org/2000/svg" viewBox="0 0 391 385" width="391" height="385">
	<title>login-image-svg</title>
	<style>
		.s0 { fill: #263238 } 
		.s1 { fill: #ffffff } 
		.s2 { fill: none } 
		.s3 { fill: #c7c7c7 } 
		.s4 { fill: #ebebeb } 
		.s5 { fill: none;stroke: #ebebeb;stroke-miterlimit:10 } 
		.s6 { fill: #a6a6a6 } 
		.s7 { fill: #ffc727 } 
		.s8 { fill: #455a64 } 
		.s9 { fill: #eb9481 } 
		.s10 { opacity: .1;fill: #000000 } 
		.s11 { fill: #37474f } 
		.s12 { opacity: .1;fill: #263238 } 
	</style>
	<g id="Device">
		<g id="Layer">
			<g id="Layer">
				<path id="Layer" fill-rule="evenodd" class="s0" d="m310.6 18v348c0 9.6-7.6 17.4-17.1 17.4h-169c-9.5 0-17.1-7.8-17.1-17.4v-348c0-9.6 7.6-17.4 17.1-17.4h169c9.5 0 17.1 7.8 17.1 17.4zm-10.7 13.2c0-17.1-6.8-19.6-15.3-19.6h-30.3c-1.8 0-3.2 2-3.2 4.5v1.1c0 5.8-3.1 5.8-7.1 5.8h-70c-3.9 0-7.1 0-7.1-5.8v-1.1c0-2.5-1.5-4.5-3.2-4.5h-30.3c-8.5 0-15.4 0.9-15.4 19.6v324.1c0 9.1 6.9 16.5 15.4 16.5h151.2c8.5 0 15.3-7.4 15.3-16.5z"/>
				<path id="Layer" class="s1" d="m218.6 15.8h-19.2c-0.6 0-1.1-0.6-1.1-1.2 0-0.7 0.5-1.2 1.1-1.2h19.2c0.6 0 1.1 0.5 1.1 1.2 0 0.6-0.5 1.2-1.1 1.2z"/>
				<path id="Layer" class="s2" d="m118 334.7h-0.5"/>
				<g id="Layer">
					<path id="Layer" class="s1" d="m299.9 31.2v324.1c0 9.1-6.8 16.5-15.3 16.5h-151.2c-8.5 0-15.4-7.4-15.4-16.5v-324.1c0-18.7 6.9-19.6 15.4-19.6h30.3c1.7 0 3.2 2 3.2 4.5v1.1c0 5.8 3.2 5.8 7.1 5.8h70c4 0 7.1 0 7.1-5.8v-1.1c0-2.5 1.4-4.5 3.2-4.5h30.3c8.5 0 15.3 2.5 15.3 19.6z"/>
					<g id="Layer">
						<path id="Layer" class="s3" d="m136.5 52.8l-5.4-5 5.4-5 0.8 0.9-4.4 4.1 4.4 4.2z"/>
						<g id="Layer">
							<path id="Layer" class="s3" d="m285.9 44.7c0 0.6-0.5 1-1.1 1-0.6 0-1.1-0.4-1.1-1 0-0.6 0.5-1.1 1.1-1.1 0.6 0 1.1 0.5 1.1 1.1z"/>
							<path id="Layer" class="s3" d="m285.9 48.4c0 0.6-0.5 1.1-1.1 1.1-0.6 0-1.1-0.5-1.1-1.1 0-0.6 0.5-1 1.1-1 0.6 0 1.1 0.4 1.1 1z"/>
							<path id="Layer" class="s3" d="m285.9 52.2c0 0.6-0.5 1-1.1 1-0.6 0-1.1-0.4-1.1-1 0-0.6 0.5-1.1 1.1-1.1 0.6 0 1.1 0.5 1.1 1.1z"/>
						</g>
						<g id="Layer">
							<path id="Layer" class="s3" d="m194.7 51c0.1-0.2 0.3-0.2 0.5-0.1 0.3 0.3 0.8 0.6 1.3 0.6 0.4 0 0.7-0.1 0.9-0.3q0.3-0.2 0.3-0.5 0-0.1-0.1-0.2 0-0.1-0.2-0.2c-0.2-0.2-0.5-0.3-0.9-0.4q-0.5-0.1-0.9-0.2-0.4-0.2-0.7-0.6-0.1-0.2-0.2-0.6c0-0.4 0.3-0.7 0.6-1 0.3-0.2 0.8-0.4 1.2-0.4 0.7 0 1.2 0.4 1.5 0.6 0.2 0.1 0.3 0.3 0.1 0.5-0.1 0.2-0.3 0.2-0.5 0.1-0.3-0.2-0.6-0.4-1.1-0.4-0.3 0-0.6 0.1-0.8 0.2q-0.2 0.2-0.2 0.4 0 0.2 0 0.2 0.1 0.1 0.2 0.2c0.2 0.1 0.5 0.3 0.9 0.3q0.5 0.1 1 0.3c0.3 0.2 0.5 0.3 0.7 0.6q0.1 0.3 0.1 0.6c0 0.4-0.2 0.8-0.6 1.1-0.3 0.2-0.8 0.4-1.3 0.4-0.7 0-1.4-0.4-1.8-0.7-0.1-0.1-0.1-0.4 0-0.5z"/>
							<path id="Layer" class="s3" d="m199.6 47.7c0-0.2 0.1-0.4 0.3-0.4 0.3 0 0.4 0.2 0.4 0.4v4.1c0 0.2-0.1 0.4-0.4 0.4-0.2 0-0.3-0.2-0.3-0.4z"/>
							<path id="Layer" class="s3" d="m201.4 49.7c0-1.4 1.2-2.6 2.6-2.6 0.6 0 1.2 0.3 1.6 0.6 0.2 0.1 0.2 0.4 0.1 0.6-0.1 0.1-0.4 0.2-0.6 0-0.3-0.2-0.7-0.4-1.1-0.4-0.5 0-0.9 0.2-1.2 0.6-0.4 0.3-0.6 0.7-0.6 1.2 0 0.4 0.2 0.9 0.6 1.2 0.3 0.3 0.7 0.5 1.2 0.5q0.5 0 1-0.3v-0.9h-1c-0.2 0-0.4-0.2-0.4-0.4 0-0.3 0.2-0.4 0.4-0.4h1.3q0.1 0 0.1 0 0 0 0 0c0.2 0 0.4 0.1 0.4 0.4v1.5q0 0.1-0.1 0.1 0 0.1 0 0.1 0 0.1-0.1 0.1c-0.4 0.4-1 0.6-1.6 0.6-1.4 0-2.6-1.1-2.6-2.5z"/>
							<path id="Layer" class="s3" d="m208.1 51.8c0 0.2-0.2 0.4-0.4 0.4-0.2 0-0.4-0.2-0.4-0.4v-4.1q0 0 0 0 0-0.2 0.2-0.3c0.2-0.1 0.4-0.1 0.5 0.1l2.3 3.1v-2.9c0-0.2 0.2-0.3 0.4-0.3 0.2 0 0.4 0.1 0.4 0.3v4.1c0 0.2-0.2 0.4-0.4 0.4q-0.2 0-0.3-0.1 0-0.1 0-0.1l-2.3-3.1z"/>
							<path id="Layer" class="s3" d="m216.9 52.2c-1.2 0-2.1-0.9-2.1-2v-2.5c0-0.2 0.2-0.4 0.4-0.4 0.2 0 0.4 0.2 0.4 0.4v2.5c0 0.7 0.6 1.2 1.3 1.2 0.7 0 1.2-0.5 1.2-1.2v-2.5c0-0.2 0.2-0.4 0.4-0.4 0.2 0 0.4 0.2 0.4 0.4v2.5c0 1.1-0.9 2-2 2z"/>
							<path id="Layer" fill-rule="evenodd" class="s3" d="m222.2 50.3h-0.9v1.5c0 0.2-0.2 0.4-0.4 0.4-0.2 0-0.4-0.2-0.4-0.4v-4.1c0-0.2 0.2-0.4 0.4-0.4h1.3c0.8 0 1.5 0.7 1.5 1.5 0 0.8-0.7 1.5-1.5 1.5zm-0.9-0.8h0.9c0.4 0 0.7-0.3 0.7-0.7 0-0.4-0.3-0.7-0.7-0.7h-0.9z"/>
						</g>
					</g>
					<g id="Layer">
						<g id="u5Zjqx_3_">
							<g id="Layer">
								<path id="Layer" class="s3" d="m158.5 18.9q-0.2 0.2-0.3 0.3-0.1 0.1-0.2 0.2-1.2-1.2-2.8-1.2-1.7 0-2.9 1.2 0-0.1-0.1-0.2-0.2-0.1-0.3-0.3 0 0 0 0 0 0 0 0 0 0 0 0 0.2-0.2 0.4-0.3 0.4-0.4 0.8-0.6 0.6-0.3 1.2-0.4 0.3 0 0.5 0c0.1 0 0.5 0 0.5 0q0.2 0 0.4 0 0.6 0 1.1 0.2 0.3 0.2 0.7 0.4 0.3 0.2 0.6 0.4 0.2 0.2 0.4 0.3 0 0 0 0z"/>
								<path id="Layer" class="s3" d="m153.3 20.3q-0.3-0.2-0.5-0.5 0.8-0.8 1.9-0.9 1.6-0.2 2.8 0.9-0.2 0.3-0.4 0.5-0.8-0.8-1.9-0.8-1.1 0-1.9 0.8z"/>
								<path id="Layer" class="s3" d="m156.6 20.8q-0.2 0.2-0.5 0.4-0.4-0.4-0.9-0.4-0.6 0-1 0.4-0.2-0.2-0.5-0.4c0.8-0.8 2.1-0.9 2.9 0z"/>
							</g>
							<path id="Layer" class="s3" d="m155.6 21.6c0 0.3-0.2 0.4-0.4 0.4-0.3 0-0.4-0.1-0.4-0.4 0-0.2 0.1-0.4 0.4-0.4 0.2 0 0.4 0.2 0.4 0.4z"/>
						</g>
						<g id="Layer">
							<path id="Layer" class="s3" d="m129.9 19.8c0-0.7 0.5-1.2 1.2-1.2 0.7 0 1.2 0.5 1.2 1.2 0 0.7-0.5 1.2-1.2 1.2-0.7 0-1.2-0.5-1.2-1.2z"/>
							<path id="Layer" class="s3" d="m133.7 19.8c0-0.7 0.5-1.2 1.2-1.2 0.7 0 1.2 0.5 1.2 1.2 0 0.7-0.5 1.2-1.2 1.2-0.7 0-1.2-0.5-1.2-1.2z"/>
							<path id="Layer" class="s3" d="m137.5 19.8c0-0.7 0.5-1.2 1.2-1.2 0.7 0 1.2 0.5 1.2 1.2 0 0.7-0.5 1.2-1.2 1.2-0.7 0-1.2-0.5-1.2-1.2z"/>
							<path id="Layer" class="s3" d="m141.3 19.8c0-0.7 0.5-1.2 1.2-1.2 0.7 0 1.2 0.5 1.2 1.2 0 0.7-0.5 1.2-1.2 1.2-0.7 0-1.2-0.5-1.2-1.2z"/>
							<path id="Layer" class="s3" d="m145.1 19.8c0-0.7 0.5-1.2 1.2-1.2 0.7 0 1.2 0.5 1.2 1.2 0 0.7-0.5 1.2-1.2 1.2-0.7 0-1.2-0.5-1.2-1.2z"/>
						</g>
						<g id="Layer">
							<path id="Layer" fill-rule="evenodd" class="s3" d="m286.3 22.4h-9.8v-4.5h9.8zm-9.3-0.5h8.8v-3.6h-8.8z"/>
							<path id="Layer" class="s3" d="m277.3 18.7h6.3v3h-6.3z"/>
							<path id="Layer" class="s3" d="m286.3 18.9h0.9v2.5h-0.9z"/>
						</g>
					</g>
					<g id="Layer">
						<path id="Layer" class="s4" d="m141.2 354.3h-0.9v4.1h-1.6v-2.1h-3v2.1h-1.6v-4.1h-0.9l4-4.1z"/>
						<g id="Layer">
							<path id="Layer" class="s4" d="m275.5 350.2h9.7v1.4h-9.7z"/>
							<path id="Layer" class="s4" d="m275.5 353.6h9.7v1.4h-9.7z"/>
							<path id="Layer" class="s4" d="m275.5 357h9.7v1.4h-9.7z"/>
						</g>
						<g id="Layer">
							<path id="Layer" class="s4" d="m212 354.4l-2.7 3-2.8-3 0.5-0.4 2.3 2.4 2.3-2.4z"/>
							<path id="Layer" fill-rule="evenodd" class="s4" d="m209.3 360.4c-2.8 0-5-2.2-5-5 0-2.7 2.2-5 5-5 2.7 0 5 2.3 5 5 0 2.8-2.3 5-5 5zm0-9.3c-2.4 0-4.4 1.9-4.4 4.3 0 2.4 2 4.4 4.4 4.4 2.4 0 4.3-2 4.3-4.4 0-2.4-1.9-4.3-4.3-4.3z"/>
						</g>
					</g>
					<g id="Layer">
						<g id="Layer">
							<path id="Layer" class="s0" d="m151.5 143.3c-1.1 0-1.9-0.9-1.9-2v-2.3c0-0.2 0.1-0.4 0.3-0.4 0.2 0 0.4 0.2 0.4 0.4v2.3c0 0.7 0.5 1.2 1.2 1.2 0.7 0 1.2-0.5 1.2-1.2v-2.3c0-0.2 0.2-0.4 0.4-0.4 0.2 0 0.3 0.2 0.3 0.4v2.3c0 1.1-0.8 2-1.9 2z"/>
							<path id="Layer" class="s0" d="m154.8 142.3c0.1-0.1 0.3-0.2 0.5 0 0.2 0.1 0.5 0.3 0.7 0.3 0.2 0 0.4-0.1 0.5-0.2q0.1-0.1 0.1-0.2 0 0 0 0 0-0.1-0.1-0.1c-0.1-0.1-0.3-0.1-0.5-0.2h-0.1q-0.3-0.1-0.5-0.2-0.3-0.1-0.5-0.4-0.1-0.1-0.1-0.4c0-0.3 0.2-0.6 0.4-0.7q0.3-0.3 0.8-0.3c0.5 0 0.8 0.3 1 0.4 0.2 0.1 0.2 0.3 0.1 0.5-0.1 0.2-0.3 0.2-0.5 0.1-0.2-0.2-0.4-0.3-0.6-0.3q-0.3 0.1-0.4 0.2-0.1 0.1-0.1 0.1 0 0 0 0.1 0 0 0.1 0 0.1 0.1 0.5 0.2 0.3 0.1 0.6 0.2c0.2 0.1 0.4 0.2 0.5 0.4q0.1 0.2 0.1 0.4c0 0.4-0.2 0.6-0.4 0.8q-0.4 0.3-0.9 0.3c-0.5 0-0.9-0.3-1.2-0.5-0.1-0.1-0.1-0.3 0-0.5z"/>
							<path id="Layer" fill-rule="evenodd" class="s0" d="m158 141.6c0-0.9 0.7-1.7 1.6-1.7 0.9 0 1.6 0.7 1.7 1.6q0 0 0 0 0 0.1 0 0.1c-0.1 0.1-0.2 0.3-0.4 0.3h-2.1c0 0.1 0.1 0.3 0.2 0.4 0.1 0.2 0.4 0.3 0.6 0.3 0.3 0 0.6 0 0.7-0.2 0.2-0.1 0.5-0.1 0.5 0 0.1 0.1 0.2 0.3 0 0.4q-0.4 0.5-1.2 0.5c-0.9 0-1.6-0.8-1.6-1.7zm0.7-0.3h1.9c0-0.3-0.4-0.7-1-0.7-0.5 0-0.8 0.4-0.9 0.7z"/>
							<path id="Layer" class="s0" d="m164.3 140.3c0 0.2-0.2 0.3-0.4 0.3q-0.2 0-0.4 0.2-0.2 0.1-0.3 0.3c-0.2 0.2-0.3 0.5-0.3 0.6v1.2c0 0.2-0.2 0.4-0.4 0.4-0.2 0-0.3-0.2-0.3-0.4v-2.6c0-0.2 0.1-0.4 0.3-0.4 0.2 0 0.4 0.2 0.4 0.4q0.1 0 0.2-0.1c0.2-0.1 0.5-0.3 0.8-0.3 0.2 0 0.4 0.2 0.4 0.4z"/>
							<path id="Layer" class="s0" d="m167.9 141.3v1.6c0 0.2-0.1 0.4-0.3 0.4-0.2 0-0.4-0.2-0.4-0.4v-1.6c0-0.3-0.3-0.6-0.7-0.6-0.3 0-0.6 0.3-0.6 0.6v1.6q0 0.1-0.1 0.1c0 0.2-0.1 0.3-0.3 0.3-0.2 0-0.4-0.2-0.4-0.4v-1.6-1c0-0.2 0.2-0.4 0.4-0.4 0.1 0 0.3 0.1 0.3 0.2q0.3-0.2 0.7-0.2c0.8 0 1.4 0.7 1.4 1.4z"/>
							<path id="Layer" fill-rule="evenodd" class="s0" d="m172.1 142.9c0 0.2-0.2 0.4-0.4 0.4-0.1 0-0.3-0.1-0.3-0.3q-0.4 0.3-0.9 0.3c-0.5 0-0.9-0.2-1.1-0.5-0.3-0.3-0.5-0.7-0.5-1.2 0-0.4 0.2-0.9 0.5-1.2 0.2-0.3 0.6-0.5 1.1-0.5q0.5 0 0.9 0.3c0-0.1 0.2-0.3 0.3-0.3 0.2 0 0.4 0.2 0.4 0.4zm-0.7-1.3q0-0.5-0.3-0.7-0.2-0.3-0.6-0.3c-0.2 0-0.5 0.1-0.6 0.3q-0.3 0.2-0.3 0.7 0 0.4 0.3 0.7c0.1 0.1 0.4 0.2 0.6 0.2q0.4 0 0.6-0.2 0.3-0.3 0.3-0.7z"/>
							<path id="Layer" class="s0" d="m176.2 141.3q0 0 0 0v1.6c0 0.2-0.1 0.4-0.3 0.4-0.2 0-0.4-0.2-0.4-0.4v-1.6q0 0 0 0c0-0.3-0.3-0.6-0.7-0.6-0.4 0-0.7 0.3-0.7 0.6v1.6q0 0.1 0 0.1 0 0 0 0 0 0 0 0 0 0.1 0 0.1c-0.1 0.1-0.2 0.2-0.3 0.2q-0.1 0-0.1 0c-0.2-0.1-0.3-0.2-0.3-0.4v-1.6q0 0 0 0v-1c0-0.2 0.2-0.4 0.4-0.4 0.1 0 0.2 0.1 0.3 0.2q0.3-0.2 0.7-0.2c0.4 0 0.8 0.2 1.1 0.5 0.2-0.3 0.6-0.5 1-0.5 0.8 0 1.4 0.7 1.4 1.4v1.6c0 0.2-0.2 0.4-0.4 0.4-0.1 0-0.3-0.2-0.3-0.4v-1.6c0-0.3-0.3-0.6-0.7-0.6-0.4 0-0.7 0.3-0.7 0.6z"/>
							<path id="Layer" fill-rule="evenodd" class="s0" d="m179.6 141.6c0-0.9 0.7-1.7 1.6-1.7 0.9 0 1.6 0.7 1.6 1.6q0 0 0 0 0 0.1 0 0.1c0 0.1-0.2 0.3-0.3 0.3h-2.2c0.1 0.1 0.1 0.3 0.3 0.4 0.1 0.2 0.4 0.3 0.6 0.3 0.2 0 0.5 0 0.7-0.2 0.1-0.1 0.4-0.1 0.5 0 0.1 0.1 0.2 0.3 0 0.4q-0.5 0.5-1.2 0.5c-0.9 0-1.6-0.8-1.6-1.7zm0.7-0.3h1.9c-0.1-0.3-0.4-0.7-1-0.7-0.6 0-0.9 0.4-0.9 0.7z"/>
						</g>
						<path id="Layer" class="s4" d="m148.4 148.4h121.2v14.4h-121.2z"/>
						<g id="Layer">
							<path id="Layer" class="s0" d="m149.5 177.4v-4c0-0.2 0.2-0.3 0.4-0.3q0 0 0 0h2.2c0.2 0 0.4 0.1 0.4 0.3 0 0.3-0.2 0.4-0.4 0.4h-1.8v1.3h1.6c0.2 0 0.3 0.1 0.3 0.3 0 0.2-0.1 0.4-0.3 0.4h-1.6v1.2h1.8c0.2 0 0.4 0.2 0.4 0.4 0 0.2-0.2 0.4-0.4 0.4h-2.2q0 0 0 0c-0.2 0-0.4-0.2-0.4-0.4z"/>
							<path id="Layer" class="s0" d="m156.3 175.8q0 0 0 0v1.6c0 0.2-0.2 0.4-0.4 0.4-0.2 0-0.4-0.2-0.4-0.4v-1.6q0 0 0 0c0-0.4-0.3-0.7-0.6-0.7-0.4 0-0.7 0.4-0.7 0.7v1.6q0 0 0 0.1 0 0 0 0 0 0-0.1 0 0 0 0 0.1c0 0.1-0.1 0.2-0.3 0.2q0 0-0.1 0c-0.1-0.1-0.2-0.2-0.2-0.4v-1.6q0 0 0 0v-1c0-0.2 0.1-0.4 0.3-0.4 0.2 0 0.3 0.1 0.3 0.2q0.4-0.2 0.8-0.2c0.4 0 0.7 0.2 1 0.5 0.3-0.3 0.6-0.5 1.1-0.5 0.7 0 1.4 0.7 1.4 1.4v1.6c0 0.2-0.2 0.4-0.4 0.4-0.2 0-0.4-0.2-0.4-0.4v-1.6c0-0.3-0.3-0.7-0.6-0.7-0.4 0-0.7 0.3-0.7 0.7z"/>
							<path id="Layer" fill-rule="evenodd" class="s0" d="m162.7 177.4c0 0.2-0.2 0.4-0.4 0.4-0.2 0-0.3-0.1-0.3-0.3q-0.4 0.3-0.9 0.3c-0.5 0-0.9-0.2-1.2-0.5-0.2-0.3-0.4-0.7-0.4-1.2 0-0.5 0.2-0.9 0.4-1.2 0.3-0.3 0.7-0.5 1.2-0.5q0.5 0 0.9 0.3c0-0.1 0.1-0.3 0.3-0.3 0.2 0 0.4 0.2 0.4 0.4zm-0.7-1.3q0-0.5-0.3-0.7-0.3-0.3-0.6-0.3c-0.3 0-0.5 0.1-0.6 0.3q-0.3 0.2-0.3 0.7 0 0.4 0.3 0.7c0.1 0.1 0.3 0.2 0.6 0.2q0.3 0 0.6-0.2 0.3-0.3 0.3-0.7z"/>
							<path id="Layer" class="s0" d="m164.7 173.6c0 0.2-0.1 0.4-0.3 0.4-0.2 0-0.4-0.2-0.4-0.4v-0.2c0-0.2 0.2-0.3 0.4-0.3 0.2 0 0.3 0.1 0.3 0.3zm0 1.3v2.6c0 0.2-0.1 0.3-0.3 0.3-0.2 0-0.4-0.1-0.4-0.3v-2.6c0-0.3 0.2-0.4 0.4-0.4 0.2 0 0.3 0.1 0.3 0.4z"/>
							<path id="Layer" class="s0" d="m166.2 173.1c0.2 0 0.3 0.1 0.3 0.3v4c0 0.2-0.1 0.4-0.3 0.4-0.2 0-0.4-0.2-0.4-0.4v-4c0-0.2 0.2-0.3 0.4-0.3z"/>
						</g>
						<path id="Layer" class="s4" d="m148.4 182.9h121.2v14.4h-121.2z"/>
						<g id="Layer">
							<path id="Layer" fill-rule="evenodd" class="s0" d="m151.1 210.4h-0.8v1.5c0 0.2-0.2 0.4-0.4 0.4-0.2 0-0.4-0.2-0.4-0.4v-4c0-0.2 0.2-0.3 0.4-0.3h1.2c0.8 0 1.5 0.6 1.5 1.4 0 0.8-0.7 1.4-1.5 1.4zm-0.8-0.7h0.8c0.4 0 0.7-0.3 0.7-0.7 0-0.4-0.3-0.7-0.7-0.7h-0.8z"/>
							<path id="Layer" fill-rule="evenodd" class="s0" d="m156.2 211.9c0 0.2-0.1 0.4-0.3 0.4-0.2 0-0.3-0.2-0.4-0.3q-0.4 0.3-0.9 0.3c-0.4 0-0.8-0.2-1.1-0.5-0.3-0.3-0.5-0.7-0.5-1.2 0-0.5 0.2-0.9 0.5-1.2 0.3-0.3 0.7-0.5 1.1-0.5q0.5 0 0.9 0.3c0.1-0.2 0.2-0.3 0.4-0.3 0.2 0 0.3 0.2 0.3 0.4zm-0.7-1.3q0-0.5-0.2-0.7-0.3-0.3-0.7-0.3c-0.2 0-0.4 0.1-0.6 0.3q-0.2 0.2-0.2 0.7 0 0.4 0.2 0.6c0.2 0.2 0.4 0.3 0.6 0.3q0.4 0 0.7-0.3 0.2-0.2 0.2-0.6z"/>
							<path id="Layer" class="s0" d="m157.4 211.3c0.1-0.2 0.3-0.2 0.5 0 0.2 0.1 0.5 0.3 0.7 0.3 0.2 0 0.4-0.1 0.5-0.2q0.1-0.1 0.1-0.2 0 0 0 0 0-0.1-0.1-0.1c-0.1-0.1-0.3-0.2-0.5-0.2h-0.1q-0.3-0.1-0.5-0.2-0.3-0.1-0.5-0.4-0.1-0.2-0.1-0.4c0-0.3 0.2-0.6 0.4-0.7q0.3-0.3 0.8-0.3c0.5 0 0.8 0.2 1 0.4 0.2 0.1 0.2 0.3 0.1 0.5-0.1 0.1-0.3 0.2-0.5 0.1-0.2-0.2-0.4-0.3-0.6-0.3q-0.3 0-0.4 0.1-0.1 0.1-0.1 0.2 0 0 0 0.1 0 0 0.1 0 0.1 0.1 0.5 0.2 0.3 0 0.6 0.2c0.2 0.1 0.4 0.2 0.5 0.4q0.1 0.2 0.1 0.4c0 0.3-0.2 0.6-0.4 0.8q-0.4 0.3-0.9 0.3c-0.5 0-0.9-0.3-1.2-0.5-0.1-0.1-0.1-0.3 0-0.5z"/>
							<path id="Layer" class="s0" d="m160.6 211.3c0.1-0.2 0.4-0.2 0.5 0 0.2 0.1 0.5 0.3 0.8 0.3 0.1 0 0.3-0.1 0.4-0.2q0.1-0.1 0.1-0.2 0 0 0 0 0-0.1-0.1-0.1c-0.1-0.1-0.3-0.2-0.5-0.2q-0.3-0.1-0.6-0.2-0.3-0.1-0.5-0.4-0.1-0.2-0.1-0.4c0-0.3 0.2-0.6 0.4-0.7q0.4-0.3 0.8-0.3c0.5 0 0.8 0.2 1.1 0.4 0.1 0.1 0.2 0.3 0.1 0.5-0.1 0.1-0.4 0.2-0.5 0.1-0.3-0.2-0.4-0.3-0.7-0.3q-0.2 0-0.4 0.1-0.1 0.1-0.1 0.2 0 0 0 0.1 0.1 0 0.1 0 0.2 0.1 0.5 0.2 0.4 0 0.7 0.2c0.1 0.1 0.3 0.2 0.4 0.4q0.2 0.2 0.2 0.4c0 0.3-0.2 0.6-0.5 0.8q-0.3 0.3-0.8 0.3c-0.6 0-1-0.3-1.2-0.5-0.2-0.1-0.2-0.3-0.1-0.5z"/>
							<path id="Layer" class="s0" d="m168.3 209.4l-1.1 2.7q0 0 0 0 0 0 0 0-0.1 0-0.1 0.1 0 0 0 0 0 0 0 0 0 0 0 0-0.1 0-0.1 0 0 0 0 0.1 0 0-0.1 0 0 0 0 0 0 0 0 0-0.1 0-0.1 0 0 0 0 0 0 0-0.1 0 0-0.1 0-0.1 0 0 0 0 0 0 0 0 0 0 0 0-0.1 0-0.1 0 0 0 0 0 0-0.1 0-0.1 0 0 0 0 0 0-0.1 0l-0.4-1.2-0.5 1.2q0 0-0.1 0 0 0 0 0.1 0 0 0 0 0 0 0 0-0.1 0-0.1 0 0 0 0 0.1-0.1 0-0.1 0 0 0 0 0 0 0 0 0-0.1 0-0.1 0 0 0 0 0-0.1 0-0.1 0 0-0.1 0-0.1 0 0 0 0-0.1 0-0.1 0 0 0 0 0 0 0 0 0 0-0.1 0-0.1 0 0 0 0-0.1 0-0.1 0l-1.1-2.7c-0.1-0.1 0-0.3 0.2-0.4 0.2-0.1 0.4 0 0.5 0.2l0.8 1.8 0.4-1.1q0.1-0.2 0.4-0.2 0.2 0 0.3 0.2l0.5 1.1 0.7-1.8c0.1-0.2 0.3-0.3 0.5-0.2 0.2 0.1 0.3 0.3 0.2 0.4z"/>
							<path id="Layer" fill-rule="evenodd" class="s0" d="m169.9 211.8c-0.3-0.3-0.5-0.7-0.5-1.2q0.1-0.7 0.5-1.2c0.3-0.3 0.7-0.5 1.2-0.5 0.4 0 0.8 0.2 1.1 0.5q0.4 0.5 0.4 1.2c0 0.5-0.1 0.9-0.4 1.2-0.3 0.3-0.7 0.5-1.1 0.5-0.5 0-0.9-0.2-1.2-0.5zm0.3-1.2q0 0.4 0.2 0.7 0.3 0.3 0.7 0.3 0.3 0 0.6-0.3 0.2-0.3 0.2-0.7 0-0.4-0.2-0.7c-0.2-0.1-0.4-0.3-0.6-0.3-0.3 0-0.5 0.2-0.7 0.3q-0.2 0.3-0.2 0.7z"/>
							<path id="Layer" class="s0" d="m175.7 209.3c0 0.2-0.1 0.3-0.3 0.3q-0.3 0-0.4 0.2-0.2 0.1-0.3 0.3c-0.2 0.2-0.3 0.4-0.3 0.5v1.3c0 0.2-0.2 0.4-0.4 0.4-0.2 0-0.3-0.2-0.3-0.4v-2.6c0-0.2 0.1-0.4 0.3-0.4 0.2 0 0.4 0.2 0.4 0.4q0-0.1 0.1-0.1c0.2-0.2 0.5-0.3 0.9-0.3 0.2 0 0.3 0.2 0.3 0.4z"/>
							<path id="Layer" fill-rule="evenodd" class="s0" d="m179.5 211.9c0 0.2-0.2 0.4-0.4 0.4-0.2 0-0.3-0.2-0.3-0.3-0.3 0.2-0.6 0.3-1 0.3-0.9 0-1.6-0.8-1.6-1.7 0-0.9 0.7-1.7 1.6-1.7 0.4 0 0.7 0.1 0.9 0.3v-1.3c0-0.2 0.2-0.3 0.4-0.3 0.2 0 0.4 0.1 0.4 0.3 0 0 0 2.7 0 2.7zm-1.7-2.3q-0.3 0-0.6 0.3-0.2 0.3-0.3 0.7c0 0.2 0.1 0.5 0.3 0.7q0.3 0.2 0.6 0.2 0.4 0 0.7-0.2c0.1-0.2 0.2-0.5 0.2-0.7q0-0.4-0.2-0.7-0.3-0.3-0.7-0.3z"/>
						</g>
						<path id="Layer" class="s4" d="m148.4 217.4h121.2v14.4h-121.2z"/>
						<g id="Layer">
							<g id="Layer">
								<path id="Layer" class="s0" d="m155.7 247.9c0-0.1 0.1-0.1 0.2-0.1 0.1 0 0.1 0 0.1 0.1v3.7c0 0 0 0.1-0.1 0.1-0.1 0-0.2-0.1-0.2-0.1z"/>
								<path id="Layer" fill-rule="evenodd" class="s0" d="m161.3 249.1v2.5c0 0 0 0.1-0.1 0.1-0.1 0-0.1-0.1-0.1-0.1v-0.5c-0.3 0.4-0.7 0.6-1.1 0.6-0.7 0-1.3-0.6-1.3-1.4 0-0.7 0.6-1.4 1.3-1.4 0.4 0 0.8 0.3 1.1 0.6v-0.4q0-0.1 0.1-0.2 0.1 0.1 0.1 0.2zm-0.2 1.2c0-0.6-0.5-1.1-1.1-1.1-0.5 0-1 0.5-1 1.1 0 0.6 0.5 1.1 1 1.1 0.6 0 1.1-0.5 1.1-1.1z"/>
								<path id="Layer" fill-rule="evenodd" class="s0" d="m165.1 251.5c0 0.7-0.6 1.3-1.3 1.3q-0.3 0-0.6-0.2c0 0-0.1-0.1 0-0.1q0-0.2 0.1-0.1 0.2 0.1 0.5 0.1c0.6 0 1-0.5 1-1v-0.4c-0.2 0.4-0.6 0.6-1 0.6-0.7 0-1.3-0.6-1.3-1.4 0-0.7 0.6-1.4 1.3-1.4 0.4 0 0.8 0.3 1 0.6v-0.4c0-0.1 0.1-0.2 0.1-0.2 0.1 0 0.2 0.1 0.2 0.2 0 0 0 2.4 0 2.4zm-0.3-1.2c0-0.6-0.4-1.1-1-1.1-0.6 0-1 0.5-1 1.1 0 0.6 0.4 1.1 1 1.1 0.6 0 1-0.5 1-1.1z"/>
								<path id="Layer" class="s0" d="m166.4 249.1q0-0.1 0.1-0.1c0.1 0 0.1 0 0.1 0.1v0.6q0.1 0 0.1-0.1c0.2-0.3 0.6-0.6 1.1-0.6q0.1 0 0.1 0.1c0 0.1 0 0.1-0.1 0.1-0.4 0-0.6 0.2-0.8 0.5-0.2 0.2-0.3 0.5-0.3 0.6q-0.1 0-0.1 0.1v1.2c0 0 0 0.1-0.1 0.1q-0.1 0-0.1-0.1z"/>
								<path id="Layer" fill-rule="evenodd" class="s0" d="m168.4 250.3c0-0.7 0.5-1.4 1.3-1.4 0.7 0 1.3 0.6 1.3 1.3q0 0.2-0.1 0.2h-2.3c0 0.6 0.5 1 1.1 1 0.4 0 0.7-0.2 0.9-0.5 0 0 0.1-0.1 0.1 0q0.1 0.1 0.1 0.2c-0.2 0.3-0.6 0.6-1.1 0.6-0.8 0-1.3-0.6-1.3-1.4zm0.2-0.2h2.1c-0.1-0.5-0.5-0.9-1-0.9-0.5 0-1 0.4-1.1 0.9z"/>
								<path id="Layer" fill-rule="evenodd" class="s0" d="m171.8 250.3c0-0.7 0.6-1.4 1.3-1.4 0.7 0 1.3 0.6 1.3 1.3q0 0.2-0.1 0.2h-2.3c0.1 0.6 0.5 1 1.1 1 0.4 0 0.7-0.2 0.9-0.5 0 0 0.1-0.1 0.2 0q0.1 0.1 0 0.2c-0.2 0.3-0.6 0.6-1.1 0.6-0.7 0-1.3-0.6-1.3-1.4zm0.2-0.2h2.1c-0.1-0.5-0.5-0.9-1-0.9-0.5 0-1 0.4-1.1 0.9z"/>
								<path id="Layer" class="s0" d="m178 249.1c0 0-0.1 0.1-0.1 0.1h-0.4v2c0 0.1 0.1 0.2 0.2 0.2 0.1 0 0.2 0.1 0.2 0.2 0 0-0.1 0.1-0.2 0.1-0.3 0-0.5-0.2-0.5-0.5v-2h-0.3c-0.1 0-0.1-0.1-0.1-0.1 0-0.1 0-0.2 0.1-0.2h0.3v-1c0 0 0.1-0.1 0.2-0.1 0 0 0.1 0.1 0.1 0.1v1h0.4c0 0 0.1 0.1 0.1 0.2z"/>
								<path id="Layer" fill-rule="evenodd" class="s0" d="m180.4 248.9c0.7 0 1.3 0.7 1.3 1.4 0 0.8-0.6 1.4-1.3 1.4-0.8 0-1.3-0.6-1.3-1.4 0-0.7 0.5-1.4 1.3-1.4zm0 2.5c0.5 0 1-0.5 1-1.1 0-0.6-0.5-1.1-1-1.1-0.6 0-1.1 0.5-1.1 1.1 0 0.6 0.5 1.1 1.1 1.1z"/>
								<path id="Layer" fill-rule="evenodd" class="s0" d="m186.7 249.1v2.5c0 0-0.1 0.1-0.2 0.1 0 0-0.1-0.1-0.1-0.1v-0.5c-0.2 0.4-0.6 0.6-1 0.6-0.7 0-1.3-0.6-1.3-1.4 0-0.7 0.6-1.4 1.3-1.4 0.4 0 0.8 0.3 1 0.6v-0.4q0-0.1 0.1-0.2 0.2 0.1 0.2 0.2zm-0.3 1.2c0-0.6-0.5-1.1-1-1.1-0.6 0-1.1 0.5-1.1 1.1 0 0.6 0.5 1.1 1.1 1.1 0.5 0 1-0.5 1-1.1z"/>
								<path id="Layer" class="s0" d="m188 247.9c0-0.1 0-0.1 0.1-0.1 0.1 0 0.1 0 0.1 0.1v3.7c0 0 0 0.1-0.1 0.1-0.1 0-0.1-0.1-0.1-0.1z"/>
								<path id="Layer" class="s0" d="m189.3 247.9c0-0.1 0.1-0.1 0.2-0.1 0.1 0 0.1 0 0.1 0.1v3.7c0 0 0 0.1-0.1 0.1-0.1 0-0.2-0.1-0.2-0.1z"/>
								<path id="Layer" class="s0" d="m192.2 251.1c0 0 0.1 0 0.2 0 0.2 0.1 0.5 0.3 0.8 0.3q0.3 0 0.5-0.1 0.2-0.2 0.2-0.4c0-0.1 0-0.2-0.2-0.3q-0.1-0.2-0.5-0.2-0.4-0.1-0.7-0.2c-0.1-0.1-0.3-0.3-0.3-0.5 0-0.3 0.2-0.4 0.3-0.6q0.3-0.1 0.7-0.2c0.4 0 0.6 0.2 0.8 0.3q0.1 0.1 0.1 0.2c-0.1 0.1-0.2 0.1-0.2 0.1-0.2-0.2-0.4-0.3-0.7-0.3q-0.3 0-0.5 0.2-0.2 0.1-0.2 0.3 0 0.1 0.2 0.2 0.2 0.2 0.5 0.2 0.4 0.1 0.7 0.3c0.2 0.1 0.3 0.3 0.3 0.5 0 0.2-0.1 0.4-0.3 0.6q-0.3 0.2-0.7 0.2c-0.4 0-0.8-0.2-1-0.4q-0.1-0.1 0-0.2z"/>
								<path id="Layer" class="s0" d="m196.2 249.1c0 0-0.1 0.1-0.2 0.1h-0.3v2c0 0.1 0.1 0.2 0.2 0.2 0.1 0 0.1 0.1 0.1 0.2 0 0 0 0.1-0.1 0.1-0.3 0-0.5-0.2-0.5-0.5v-2h-0.3c-0.2 0-0.2-0.1-0.2-0.1 0-0.1 0-0.2 0.2-0.2h0.3v-1c0 0 0.1-0.1 0.1-0.1 0.1 0 0.2 0.1 0.2 0.1v1h0.3c0.1 0 0.2 0.1 0.2 0.2z"/>
								<path id="Layer" fill-rule="evenodd" class="s0" d="m199.6 249.1v2.5c0 0-0.1 0.1-0.2 0.1 0 0-0.1-0.1-0.1-0.1v-0.5c-0.2 0.4-0.6 0.6-1 0.6-0.7 0-1.3-0.6-1.3-1.4 0-0.7 0.6-1.4 1.3-1.4 0.4 0 0.8 0.3 1 0.6v-0.4q0-0.1 0.1-0.2 0.2 0.1 0.2 0.2zm-0.3 1.2c0-0.6-0.5-1.1-1-1.1-0.6 0-1 0.5-1 1.1 0 0.6 0.4 1.1 1 1.1 0.6 0 1-0.5 1-1.1z"/>
								<path id="Layer" class="s0" d="m201.7 249.1c0 0-0.1 0.1-0.1 0.1h-0.4v2c0 0.1 0.1 0.2 0.2 0.2 0.1 0 0.2 0.1 0.2 0.2 0 0-0.1 0.1-0.2 0.1-0.3 0-0.5-0.2-0.5-0.5v-2h-0.3c-0.1 0-0.1-0.1-0.1-0.1 0-0.1 0-0.2 0.1-0.2h0.3v-1c0 0 0.1-0.1 0.2-0.1 0 0 0.1 0.1 0.1 0.1v1h0.4c0 0 0.1 0.1 0.1 0.2z"/>
								<path id="Layer" fill-rule="evenodd" class="s0" d="m202.6 250.3c0-0.7 0.6-1.4 1.3-1.4 0.7 0 1.3 0.6 1.3 1.3q0 0.2-0.1 0.2h-2.3c0.1 0.6 0.5 1 1.1 1 0.4 0 0.7-0.2 0.9-0.5 0 0 0.1-0.1 0.2 0q0.1 0.1 0 0.2c-0.2 0.3-0.6 0.6-1.1 0.6-0.7 0-1.3-0.6-1.3-1.4zm0.2-0.2h2.1c-0.1-0.5-0.5-0.9-1-0.9-0.5 0-1 0.4-1.1 0.9z"/>
								<path id="Layer" class="s0" d="m210.1 250.1c0-0.5-0.4-0.9-0.9-0.9-0.4 0-0.8 0.4-0.8 0.9v1.5q0 0 0 0 0 0.1-0.1 0.1 0 0 0 0h-0.1q0 0 0 0 0 0 0 0 0 0 0 0l-0.1-0.1q0 0 0 0 0 0 0 0 0 0 0 0 0 0 0 0v-1.5c0-0.5-0.4-0.9-0.8-0.9-0.5 0-0.9 0.4-0.9 0.9v1.5q0 0 0 0.1 0 0-0.1 0 0 0 0 0-0.1 0-0.1-0.1v-1.5-0.1-0.9c0-0.1 0-0.2 0.1-0.2q0.1 0.1 0.1 0.2v0.2c0.2-0.2 0.5-0.4 0.9-0.4 0.4 0 0.8 0.3 1 0.6 0.1-0.3 0.5-0.6 0.9-0.6 0.7 0 1.2 0.5 1.2 1.2v1.5c0 0-0.1 0.1-0.2 0.1-0.1 0-0.1-0.1-0.1-0.1 0 0 0-1.5 0-1.5z"/>
								<path id="Layer" fill-rule="evenodd" class="s0" d="m211.3 250.3c0-0.7 0.6-1.4 1.3-1.4 0.7 0 1.3 0.6 1.3 1.3q0 0.2-0.1 0.2h-2.2c0 0.6 0.5 1 1 1 0.4 0 0.7-0.2 0.9-0.5 0 0 0.1-0.1 0.2 0q0.1 0.1 0 0.2c-0.2 0.3-0.6 0.6-1.1 0.6-0.7 0-1.3-0.6-1.3-1.4zm0.3-0.2h2.1c-0.1-0.5-0.6-0.9-1.1-0.9-0.5 0-0.9 0.4-1 0.9z"/>
								<path id="Layer" class="s0" d="m216.9 250.1c0-0.5-0.4-0.9-0.9-0.9-0.5 0-0.8 0.4-0.8 0.9v1.5q-0.1 0-0.1 0 0 0.1-0.1 0.1-0.1 0-0.1-0.1 0 0 0 0 0 0 0 0v-1.5-0.1-0.9q0-0.1 0.1-0.2c0.1 0 0.2 0.1 0.2 0.2v0.2c0.2-0.2 0.5-0.3 0.8-0.3 0.6 0 1.1 0.5 1.1 1.1v1.5c0 0 0 0.1-0.1 0.1q-0.1 0-0.1-0.1c0 0 0-1.5 0-1.5z"/>
								<path id="Layer" class="s0" d="m219.3 249.1c0 0-0.1 0.1-0.2 0.1h-0.3v2c0 0.1 0.1 0.2 0.2 0.2 0.1 0 0.1 0.1 0.1 0.2 0 0 0 0.1-0.1 0.1-0.3 0-0.5-0.2-0.5-0.5v-2h-0.3c-0.2 0-0.2-0.1-0.2-0.1 0-0.1 0-0.2 0.2-0.2h0.3v-1c0 0 0.1-0.1 0.1-0.1 0.1 0 0.2 0.1 0.2 0.1v1h0.3c0.1 0 0.2 0.1 0.2 0.2z"/>
								<path id="Layer" class="s0" d="m220.4 251.1c0 0 0.1 0 0.2 0 0.1 0.1 0.5 0.3 0.8 0.3q0.3 0 0.5-0.1 0.2-0.2 0.2-0.4c0-0.1 0-0.2-0.2-0.3q-0.1-0.2-0.6-0.2-0.3-0.1-0.6-0.2c-0.2-0.1-0.3-0.3-0.3-0.5 0-0.3 0.1-0.4 0.3-0.6q0.3-0.1 0.7-0.2c0.3 0 0.6 0.2 0.8 0.3q0.1 0.1 0 0.2c0 0.1-0.1 0.1-0.1 0.1-0.2-0.2-0.4-0.3-0.7-0.3q-0.4 0-0.5 0.2-0.2 0.1-0.2 0.3 0 0.1 0.1 0.2 0.2 0.2 0.6 0.2 0.4 0.1 0.7 0.3c0.2 0.1 0.3 0.3 0.3 0.5 0 0.2-0.1 0.4-0.3 0.6q-0.3 0.2-0.7 0.2c-0.4 0-0.8-0.2-1-0.4q-0.1-0.1 0-0.2z"/>
								<path id="Layer" class="s0" d="m225 248.2c0-0.1 0.1-0.1 0.1-0.1 0.1 0 0.2 0 0.2 0.1v0.1c0 0.1-0.1 0.2-0.2 0.2 0 0-0.1-0.1-0.1-0.2zm0 0.9q0-0.1 0.1-0.1 0.2 0 0.2 0.1v2.5c0 0.1-0.1 0.1-0.2 0.1 0 0-0.1 0-0.1-0.1z"/>
								<path id="Layer" class="s0" d="m228.5 250.1c0-0.5-0.4-0.9-0.8-0.9-0.5 0-0.9 0.4-0.9 0.9v1.5q0 0 0 0 0 0.1-0.1 0.1-0.1 0-0.1-0.1 0 0 0 0 0 0 0 0v-1.5-0.1-0.9q0-0.1 0.1-0.2c0.1 0 0.1 0.1 0.1 0.2v0.2c0.2-0.2 0.5-0.3 0.9-0.3 0.6 0 1.1 0.5 1.1 1.1v1.5c0 0-0.1 0.1-0.1 0.1q-0.2 0-0.2-0.1c0 0 0-1.5 0-1.5z"/>
								<path id="Layer" class="s0" d="m232.6 249.1c0 0 0 0.1-0.1 0.1h-0.4v2c0 0.1 0.2 0.2 0.2 0.2 0.1 0 0.2 0.1 0.2 0.2 0 0-0.1 0.1-0.2 0.1-0.2 0-0.4-0.2-0.4-0.5v-2h-0.4c-0.1 0-0.1-0.1-0.1-0.1 0-0.1 0-0.2 0.1-0.2h0.4v-1c0 0 0-0.1 0.1-0.1 0.1 0 0.1 0.1 0.1 0.1v1h0.4c0.1 0 0.1 0.1 0.1 0.2z"/>
								<path id="Layer" fill-rule="evenodd" class="s0" d="m233.5 250.3c0-0.7 0.6-1.4 1.3-1.4 0.7 0 1.3 0.6 1.3 1.3q0 0.2-0.1 0.2h-2.2c0 0.6 0.5 1 1 1 0.4 0 0.7-0.2 0.9-0.5 0 0 0.1-0.1 0.2 0q0.1 0.1 0 0.2c-0.2 0.3-0.6 0.6-1.1 0.6-0.7 0-1.3-0.6-1.3-1.4zm0.3-0.2h2c0-0.5-0.5-0.9-1-0.9-0.5 0-0.9 0.4-1 0.9z"/>
								<path id="Layer" class="s0" d="m237 249.1q0-0.1 0.1-0.1c0.1 0 0.1 0 0.1 0.1v0.6q0.1 0 0.1-0.1c0.2-0.3 0.6-0.6 1.1-0.6q0.1 0 0.1 0.1c0 0.1 0 0.1-0.1 0.1-0.4 0-0.6 0.2-0.8 0.5-0.2 0.2-0.3 0.5-0.3 0.6q-0.1 0-0.1 0.1v1.2c0 0 0 0.1-0.1 0.1q-0.1 0-0.1-0.1z"/>
								<path id="Layer" class="s0" d="m243.4 250.1c-0.1-0.5-0.4-0.9-0.9-0.9-0.5 0-0.8 0.4-0.8 0.9v1.5q0 0 0 0-0.1 0.1-0.1 0.1-0.1 0-0.1 0 0 0 0 0 0 0-0.1 0 0 0 0 0v-0.1q0 0 0 0 0 0 0 0 0 0 0 0 0 0 0 0v-1.5c0-0.5-0.4-0.9-0.9-0.9-0.4 0-0.8 0.4-0.8 0.9v1.5q0 0-0.1 0.1 0 0 0 0 0 0 0 0h-0.1q0 0-0.1-0.1v-1.5-0.1-0.9c0-0.1 0.1-0.2 0.2-0.2q0.1 0.1 0.1 0.2v0.2c0.2-0.2 0.5-0.4 0.8-0.4 0.5 0 0.8 0.3 1 0.6 0.2-0.3 0.6-0.6 1-0.6 0.6 0 1.1 0.5 1.1 1.2v1.5c0 0 0 0.1-0.1 0.1-0.1 0-0.1-0.1-0.1-0.1 0 0 0-1.5 0-1.5z"/>
								<path id="Layer" class="s0" d="m244.6 251.1c0 0 0.1 0 0.1 0 0.2 0.1 0.5 0.3 0.9 0.3q0.3 0 0.5-0.1 0.2-0.2 0.2-0.4c0-0.1 0-0.2-0.2-0.3q-0.2-0.2-0.6-0.2-0.4-0.1-0.6-0.2c-0.2-0.1-0.3-0.3-0.3-0.5 0-0.3 0.1-0.4 0.3-0.6q0.3-0.1 0.7-0.2c0.3 0 0.6 0.2 0.8 0.3q0.1 0.1 0 0.2c0 0.1-0.1 0.1-0.2 0.1-0.2-0.2-0.4-0.3-0.6-0.3q-0.4 0-0.5 0.2-0.2 0.1-0.2 0.3 0 0.1 0.1 0.2 0.2 0.2 0.6 0.2 0.4 0.1 0.7 0.3c0.2 0.1 0.3 0.3 0.3 0.5 0 0.2-0.1 0.4-0.3 0.6q-0.3 0.2-0.7 0.2c-0.5 0-0.8-0.2-1-0.4q-0.1-0.1 0-0.2z"/>
								<path id="Layer" fill-rule="evenodd" class="s0" d="m250.4 248.9c0.7 0 1.2 0.7 1.2 1.4 0 0.8-0.5 1.4-1.2 1.4-0.8 0-1.3-0.6-1.3-1.4 0-0.7 0.5-1.4 1.3-1.4zm0 2.5c0.5 0 1-0.5 1-1.1 0-0.6-0.5-1.1-1-1.1-0.6 0-1.1 0.5-1.1 1.1 0 0.6 0.5 1.1 1.1 1.1z"/>
								<path id="Layer" class="s0" d="m253.7 247.9c0 0.1-0.1 0.2-0.1 0.2q-0.3 0-0.4 0.1-0.1 0-0.1 0.4v0.3h0.4c0.1 0 0.1 0.1 0.1 0.1 0 0.1 0 0.2-0.1 0.2h-0.4v2.4c0 0-0.1 0.1-0.1 0.1-0.1 0-0.2-0.1-0.2-0.1v-2.4h-0.3c-0.1 0-0.2-0.1-0.2-0.2 0 0 0.1-0.1 0.2-0.1h0.3v-0.3q0-0.4 0.2-0.6c0.1-0.2 0.3-0.2 0.6-0.2 0 0 0.1 0 0.1 0.1z"/>
								<path id="Layer" class="s0" d="m256 251.1c0 0 0.1 0 0.2 0 0.2 0.1 0.5 0.3 0.8 0.3q0.4 0 0.5-0.1 0.2-0.2 0.2-0.4c0-0.1 0-0.2-0.1-0.3q-0.2-0.2-0.6-0.2-0.4-0.1-0.7-0.2c-0.1-0.1-0.3-0.3-0.3-0.5 0-0.3 0.2-0.4 0.3-0.6q0.3-0.1 0.7-0.2c0.4 0 0.6 0.2 0.8 0.3q0.1 0.1 0.1 0.2c-0.1 0.1-0.2 0.1-0.2 0.1-0.2-0.2-0.4-0.3-0.7-0.3q-0.3 0-0.5 0.2-0.2 0.1-0.2 0.3 0 0.1 0.2 0.2 0.2 0.2 0.5 0.2 0.4 0.1 0.7 0.3c0.2 0.1 0.3 0.3 0.3 0.5 0 0.2-0.1 0.4-0.3 0.6q-0.3 0.2-0.7 0.2c-0.4 0-0.8-0.2-1-0.4q-0.1-0.1 0-0.2z"/>
								<path id="Layer" fill-rule="evenodd" class="s0" d="m258.7 250.3c0-0.7 0.6-1.4 1.4-1.4 0.7 0 1.2 0.6 1.3 1.3q0 0.2-0.1 0.2h-2.3c0 0.6 0.5 1 1.1 1 0.3 0 0.7-0.2 0.9-0.5 0 0 0.1-0.1 0.1 0q0.1 0.1 0.1 0.2c-0.3 0.3-0.7 0.6-1.1 0.6-0.8 0-1.4-0.6-1.4-1.4zm0.3-0.2h2.1c-0.1-0.5-0.5-0.9-1-0.9-0.5 0-1 0.4-1.1 0.9z"/>
								<path id="Layer" class="s0" d="m262.2 249.1q0-0.1 0.2-0.1c0 0 0.1 0 0.1 0.1v0.6q0 0 0-0.1c0.2-0.3 0.6-0.6 1.1-0.6q0.2 0 0.2 0.1c0 0.1-0.1 0.1-0.2 0.1-0.3 0-0.6 0.2-0.8 0.5-0.1 0.2-0.3 0.5-0.3 0.6q0 0 0 0.1v1.2c0 0-0.1 0.1-0.1 0.1q-0.2 0-0.2-0.1z"/>
								<path id="Layer" class="s0" d="m265.6 251.7q-0.1-0.1-0.1-0.1l-1-2.4c0-0.1 0-0.2 0.1-0.2 0 0 0.1 0 0.1 0.1l0.9 2.1 1-2.1c0-0.1 0.1-0.1 0.1-0.1 0.1 0 0.1 0.1 0.1 0.2l-1 2.4q0 0-0.1 0.1 0 0-0.1 0 0 0 0 0 0 0 0 0 0 0 0 0z"/>
								<path id="Layer" class="s0" d="m267.9 248.2c0-0.1 0.1-0.1 0.2-0.1 0.1 0 0.1 0 0.1 0.1v0.1c0 0.1 0 0.2-0.1 0.2-0.1 0-0.2-0.1-0.2-0.2zm0 0.9q0.1-0.1 0.2-0.1 0.1 0 0.1 0.1v2.5c0 0.1 0 0.1-0.1 0.1-0.1 0-0.2 0-0.2-0.1z"/>
								<path id="Layer" class="s0" d="m269.3 250.3c0-0.8 0.6-1.4 1.4-1.4 0.3 0 0.7 0.2 0.9 0.3 0.1 0.1 0.1 0.2 0 0.2q-0.1 0.1-0.2 0.1-0.3-0.3-0.7-0.3c-0.6 0-1.1 0.5-1.1 1.1 0 0.6 0.5 1.1 1.1 1.1q0.4 0 0.7-0.2 0.1-0.1 0.2 0 0.1 0.1 0 0.2c-0.2 0.2-0.6 0.3-0.9 0.3-0.8 0-1.4-0.6-1.4-1.4z"/>
								<path id="Layer" fill-rule="evenodd" class="s0" d="m272.4 250.3c0-0.7 0.6-1.4 1.4-1.4 0.7 0 1.2 0.6 1.3 1.3q0 0.2-0.2 0.2h-2.2c0 0.6 0.5 1 1.1 1 0.3 0 0.7-0.2 0.8-0.5 0.1 0 0.2-0.1 0.2 0q0.1 0.1 0.1 0.2c-0.3 0.3-0.7 0.6-1.1 0.6-0.8 0-1.4-0.6-1.4-1.4zm0.3-0.2h2.1c-0.1-0.5-0.5-0.9-1-0.9-0.6 0-1 0.4-1.1 0.9z"/>
							</g>
							<path id="Layer" class="s5" d="m142.5 246.1h6.9v6.9h-6.9z"/>
						</g>
						<g id="Layer">
							<g id="Layer">
								<path id="Layer" class="s6" d="m263 154.3c0 0.8-0.7 1.5-1.5 1.5-0.8 0-1.4-0.7-1.4-1.5 0-0.8 0.6-1.4 1.4-1.4 0.8 0 1.5 0.6 1.5 1.4z"/>
								<path id="Layer" class="s6" d="m264.1 158.3h-5.1c0-1.3 1.1-2.5 2.5-2.5 1.4 0 2.5 1.2 2.6 2.5z"/>
							</g>
						</g>
						<g id="Layer">
							<g id="Layer">
								<path id="Layer" class="s6" d="m259 188.6q-0.4-0.3-0.8-0.6h6.7q-0.4 0.3-0.9 0.6-0.4 0.4-0.8 0.8-0.5 0.3-1 0.7 0 0 0 0.1-0.3 0.2-0.7 0.6-0.3-0.4-0.7-0.6 0-0.1 0-0.1-0.4-0.4-0.9-0.7-0.5-0.4-0.9-0.8z"/>
								<path id="Layer" class="s6" d="m264.9 188v4.2h-6.7v-4.2q0.4 0.3 0.8 0.7 0.4 0.4 0.8 0.8 0.5 0.4 0.9 0.7 0 0.1 0 0.1 0 0 0 0 0 0 0 0-0.3 0.2-0.6 0.4-0.3 0.2-0.6 0.4-0.4 0.2-0.7 0.5-0.3 0.2-0.6 0.5 0.3-0.2 0.7-0.4 0.3-0.2 0.6-0.5 0.4-0.2 0.7-0.4 0.3-0.2 0.5-0.5 0 0 0.1 0 0.3 0.3 0.7 0.6v0.1l0.1-0.1q0.3-0.3 0.7-0.6 0 0 0 0 0.3 0.3 0.6 0.5 0.3 0.2 0.6 0.4 0.4 0.3 0.7 0.5 0.3 0.2 0.7 0.4-0.3-0.3-0.6-0.5-0.4-0.3-0.7-0.5-0.3-0.2-0.7-0.4-0.2-0.2-0.5-0.4-0.1 0-0.1 0 0 0 0 0 0.1 0 0.1-0.1 0.4-0.3 0.8-0.7 0.5-0.4 0.9-0.8 0.4-0.4 0.8-0.7z"/>
							</g>
						</g>
						<g id="Layer">
							<path id="Layer" fill-rule="evenodd" class="s6" d="m264.9 224.6c0 0-1.4 1.7-3.4 1.7-1.9 0-3.3-1.7-3.3-1.7 0 0 1.4-1.7 3.3-1.7 2 0 3.4 1.7 3.4 1.7zm-2.2 0c0-0.7-0.5-1.2-1.2-1.2-0.6 0-1.2 0.5-1.2 1.2 0 0.6 0.6 1.2 1.2 1.2 0.7 0 1.2-0.6 1.2-1.2z"/>
							<path id="Layer" class="s6" d="m262.3 224.6c0 0.4-0.3 0.7-0.8 0.7-0.4 0-0.7-0.3-0.7-0.7 0-0.4 0.3-0.8 0.7-0.8 0.5 0 0.8 0.4 0.8 0.8z"/>
						</g>
					</g>
					<g id="Layer">
						<path id="Layer" class="s7" d="m180.1 270.5h57.8v17.4h-57.8z"/>
						<g id="Layer">
							<g id="Layer">
								<path id="Layer" class="s1" d="m190.7 280.6c0.2-0.2 0.5-0.2 0.7 0 0.3 0.3 1 0.7 1.7 0.6 0.4 0 0.8-0.1 1.1-0.3q0.4-0.3 0.4-0.6 0-0.2-0.1-0.3-0.1-0.2-0.3-0.3c-0.2-0.2-0.7-0.3-1.2-0.4q-0.7-0.1-1.2-0.4-0.5-0.2-0.8-0.7-0.2-0.3-0.2-0.7c0-0.5 0.3-1 0.7-1.3 0.4-0.3 1-0.5 1.5-0.5 0.9 0 1.5 0.5 2 0.7 0.2 0.2 0.3 0.5 0.1 0.7-0.1 0.2-0.4 0.3-0.6 0.1-0.5-0.3-0.9-0.6-1.5-0.6-0.4 0-0.7 0.2-1 0.4q-0.3 0.2-0.3 0.5 0 0.2 0.1 0.3 0 0.1 0.2 0.2c0.2 0.2 0.6 0.3 1.1 0.4q0.7 0.1 1.3 0.4c0.3 0.1 0.7 0.4 0.9 0.7q0.2 0.3 0.2 0.8c0 0.5-0.3 1-0.8 1.4-0.4 0.3-1 0.5-1.6 0.5-1 0-1.8-0.5-2.3-0.9-0.2-0.2-0.3-0.5-0.1-0.7z"/>
								<path id="Layer" class="s1" d="m196.9 276.4c0-0.3 0.2-0.5 0.5-0.5 0.3 0 0.5 0.2 0.5 0.5v5.3c0 0.3-0.2 0.5-0.5 0.5-0.3 0-0.5-0.2-0.5-0.5z"/>
								<path id="Layer" class="s1" d="m199.3 279c0-1.8 1.5-3.3 3.3-3.3 0.8 0 1.5 0.3 2.1 0.7 0.2 0.2 0.2 0.5 0.1 0.8-0.2 0.2-0.5 0.2-0.8 0-0.3-0.3-0.8-0.4-1.4-0.4-0.6 0-1.2 0.2-1.6 0.6-0.4 0.4-0.7 1-0.7 1.6 0 0.6 0.3 1.1 0.7 1.5 0.4 0.4 1 0.7 1.6 0.7 0.5 0 0.9-0.2 1.2-0.4v-1.2h-1.2c-0.3 0-0.5-0.2-0.5-0.5 0-0.3 0.2-0.5 0.5-0.5h1.7q0 0 0 0 0.1 0 0 0c0.3 0 0.6 0.2 0.6 0.5v2q0 0-0.1 0.1 0 0 0 0.1 0 0.1-0.1 0.2c-0.6 0.4-1.3 0.7-2.1 0.7-1.8 0-3.3-1.4-3.3-3.2z"/>
								<path id="Layer" class="s1" d="m207.9 281.7c0 0.3-0.3 0.5-0.5 0.5-0.3 0-0.5-0.2-0.5-0.5v-5.2q0 0 0 0c0-0.2 0.1-0.3 0.2-0.4 0.2-0.2 0.5-0.1 0.7 0.1l2.9 4v-3.7c0-0.3 0.2-0.5 0.4-0.5 0.3 0 0.5 0.2 0.5 0.5v5.2c0 0.3-0.2 0.5-0.5 0.5q-0.2 0-0.3-0.2-0.1 0-0.1-0.1l-2.8-3.9z"/>
								<path id="Layer" class="s1" d="m219.1 282.2c-1.5 0-2.6-1.2-2.6-2.6v-3.2c0-0.3 0.2-0.5 0.5-0.5 0.2 0 0.5 0.2 0.5 0.5v3.2c0 0.9 0.7 1.6 1.6 1.6 0.9 0 1.6-0.7 1.6-1.6v-3.2c0-0.3 0.2-0.5 0.5-0.5 0.2 0 0.5 0.2 0.5 0.5v3.2c0 1.4-1.2 2.6-2.6 2.6z"/>
								<path id="Layer" fill-rule="evenodd" class="s1" d="m225.8 279.7h-1.1v2c0 0.3-0.2 0.5-0.5 0.5-0.2 0-0.4-0.2-0.4-0.5v-5.3c0-0.3 0.2-0.5 0.4-0.5h1.6c1.1 0 2 0.9 2 1.9 0 1.1-0.9 1.9-2 1.9zm-1.1-0.9h1.1c0.6 0 1-0.5 1-1 0-0.5-0.4-0.9-1-0.9h-1.1z"/>
							</g>
						</g>
					</g>
					<g id="Layer">
						<path id="Layer" class="s8" d="m234.8 85.8c-6.4 0-11.5-5.1-11.5-11.5 0-6.4 5.1-11.5 11.5-11.5 6.4 0 11.5 5.1 11.5 11.5 0 6.4-5.1 11.5-11.5 11.5z"/>
						<path id="Layer" class="s4" d="m181.5 125.1c-4.5 0-8.1-3.7-8.1-8.1 0-4.5 3.6-8.1 8.1-8.1 4.5 0 8.1 3.6 8.1 8.1 0 4.4-3.6 8.1-8.1 8.1z"/>
						<g id="Layer">
							<g id="Layer">
								<path id="Layer" class="s7" d="m225.4 121.6c-2.7 1.7-5.7 3-9 3.7-8.4 2.1-16.9 0.5-23.8-3.7-6.7-4.2-11.8-10.9-13.9-19.1-4-16.8 6.2-33.7 22.9-37.7 16.8-4.1 33.6 6.1 37.7 22.9 3.3 13.4-2.7 27-13.9 33.9z"/>
								<g id="Layer">
									<path id="Layer" class="s1" d="m218.5 91.5c0 5.2-4.2 9.5-9.5 9.5-5.2 0-9.5-4.3-9.5-9.5 0-5.2 4.3-9.5 9.5-9.5 5.3 0 9.5 4.3 9.5 9.5z"/>
									<path id="Layer" class="s1" d="m225.4 117.7v3.9c-2.7 1.7-5.7 3-9 3.7-8.4 2.1-16.9 0.5-23.8-3.7v-3.9c0-9.1 7.4-16.4 16.4-16.4 9.1 0 16.4 7.3 16.4 16.4z"/>
								</g>
							</g>
						</g>
					</g>
				</g>
			</g>
		</g>
	</g>
	<g id="Lines">
		<g id="Layer">
			<g id="Layer">
				<path id="Layer" class="s0" d="m246.1 147.8q-0.7-4.2 0-8.4 0.8 4.2 0 8.4z"/>
			</g>
			<g id="Layer">
				<path id="Layer" class="s0" d="m240.1 150.5q-3.5-2.5-5.9-6 3.5 2.5 5.9 6z"/>
			</g>
			<g id="Layer">
				<path id="Layer" class="s0" d="m237.8 156.6q-4.3 0.8-8.5 0 4.2-0.7 8.5 0z"/>
			</g>
			<g id="Layer">
				<path id="Layer" class="s0" d="m240.4 162.6q-2.4 3.6-5.9 6 2.4-3.5 5.9-6z"/>
			</g>
			<g id="Layer">
				<path id="Layer" class="s0" d="m246.6 165q0.8 4.2 0 8.5-0.8-4.3 0-8.5z"/>
			</g>
			<g id="Layer">
				<path id="Layer" class="s0" d="m252.6 162.3q3.5 2.5 6 6-3.6-2.4-6-6z"/>
			</g>
			<g id="Layer">
				<path id="Layer" class="s0" d="m255 156.2q4.2-0.8 8.4 0-4.2 0.8-8.4 0z"/>
			</g>
			<g id="Layer">
				<path id="Layer" class="s0" d="m252.3 150.2q2.4-3.6 6-6-2.5 3.5-6 6z"/>
			</g>
		</g>
	</g>
	<g id="Character">
		<g id="Layer">
			<g id="Layer">
				<path id="Layer" class="s7" d="m297.4 61.5c0 0 7 48.6 6.5 53.3-0.5 4.6-6.2 49.5-6.2 49.5 0 0-12.8-2.8-16.5-5-2.7-1.6-12.1-9.7-12.1-9.7 0 0 16.1-31.3 17.4-37.6 1.2-6.4 2.1-37.2 3.7-43.4 1.5-6.2 7.3-8.3 7.3-8.3"/>
				<g id="Layer">
					<path id="Layer" class="s0" d="m282.3 129c0.8 1.8 2.3 3.2 4 4.3 0.8 0.5 2.5 1.8 3 0.2 0.2-0.6 0.1-1.2-0.2-1.9-0.4-1.2-1.2-2.3-1.8-3.1-0.9-1.1-2.5-2.7-4.1-2.4-1.6 0.3-1.4 1.8-0.9 2.9z"/>
					<path id="Layer" class="s0" d="m292.6 136.8c0.3 2.1 0.8 4.3 2.3 5.8 0.7 0.7 1.5 1 2.1 0.5 0.7-0.4 1-1.6 1.1-2.5 0.2-2-0.2-4.1-1.1-5.9-0.6-1.2-1.6-2.8-3.2-2.4-1.9 0.4-1.4 3.1-1.2 4.5z"/>
					<path id="Layer" class="s0" d="m284.8 136c-0.9 0.7 0 3.3 0.8 4.6 1 1.6 2.7 3.3 4.1 2.7 0.7-0.4 0.8-2.3-0.7-4.8-1.5-2.3-3.5-3-4.2-2.5z"/>
					<path id="Layer" class="s0" d="m280.4 150.4c0.3 0.7 1 1.9 1.9 1.9 0.9 0.1 1-0.8 1-1.4 0-0.8-0.1-1.9-0.5-3-0.4-1.3-1.2-2.4-2.4-2.4-2.5-0.2-0.5 4.1 0 4.9z"/>
				</g>
			</g>
			<g id="Layer">
				<g id="Layer">
					<g id="Layer">
						<path id="Layer" class="s9" d="m357.3 288.4c0 0 21.8 38.6 21.8 38.6 3.5 7.8 6.4 14.6 7.6 18.3q0 0.1 0 0.1c0.5 1.4 0.7 2.3 0.6 2.7q-0.1 0-0.1 0c-1.6 2.6-62.9 32.4-65.4 32.7-2.5 0.4-3.6-6.7-2.1-9.8 1.5-3 19.8-24.9 19.8-24.9l-21.4-38.7z"/>
						<path id="Layer" class="s4" d="m322.8 380.6c2.5-0.3 62.8-29.9 64.4-32.5q0.1 0 0.1 0c0.1-0.4-0.1-1.3-0.5-2.7q-0.1 0-0.1-0.1c-1.2-3.7-4.1-10.5-7.6-18.3 0 0-3.7-6.8-5.1-9.1l-39 20.2 4.5 8c0 0-17.4 21.7-18.8 24.7-1.5 3.1-0.4 10.1 2.1 9.8z"/>
						<g id="Layer">
							<path id="Layer" class="s7" d="m321.7 379.8c2.5-0.4 63.6-31.9 65.1-34.5 0.7-1-3.4-10.2-8.6-21.1q-0.1-0.2-0.2-0.4l-39.7 19.9 0.4 0.6c0 0-18 22.5-19.4 25.7-1.4 3.1-0.1 10.2 2.4 9.8z"/>
							<g id="Layer">
								<path id="Layer" class="s1" d="m321.2 377.1c10.1-5.6 51.7-27.1 62.1-31.8 0.1 0 0.1 0 0.1 0.1-10 5.7-51.7 26.8-62.2 31.8-0.2 0.1-0.3 0 0-0.1z"/>
								<path id="Layer" class="s0" d="m335.5 346.2c3.6-2.9 8.9-4.8 13.5-3.5 0.2 0 0.1 0.3-0.1 0.3-4.6 0.8-8.8 1.9-13.2 3.7-0.3 0.1-0.5-0.3-0.2-0.5z"/>
								<path id="Layer" class="s0" d="m333.4 349.4c3.7-2.8 9-4.7 13.6-3.5 0.1 0.1 0.1 0.3-0.1 0.4-4.6 0.8-8.8 1.9-13.2 3.6-0.3 0.2-0.5-0.3-0.3-0.5z"/>
								<path id="Layer" class="s0" d="m331.4 352.7c3.7-2.8 9-4.8 13.5-3.5 0.2 0.1 0.2 0.3 0 0.3-4.6 0.8-8.8 2-13.2 3.7-0.3 0.1-0.5-0.3-0.3-0.5z"/>
							</g>
							<path id="Layer" class="s1" d="m371.4 335.8c3.3-4.4 10.3 0.7 7 5.2-3.3 4.5-10.3-0.6-7-5.2z"/>
							<path id="Layer" class="s10" d="m336 347.7l-4.4 27.4c-5.5 2.8-9.3 4.6-9.9 4.7-2.5 0.4-3.8-6.7-2.4-9.8 1.1-2.4 11.6-15.9 16.7-22.3z"/>
							<path id="Layer" class="s0" d="m319.6 378.1c-0.9 1 1.3 4.5 2.2 4.4 1-0.1 67.4-34.7 68.4-35.6 1-0.8-1.5-4.6-2.9-4.2-1.4 0.5-67.7 35.4-67.7 35.4z"/>
						</g>
					</g>
					<g id="Layer">
						<path id="Layer" class="s11" d="m374.1 314.3l-44 23.5c0 0-55.4-79.1-56.5-99.8-1.6-28.7 22.9-119.8 22.9-119.8l39.1-0.2c0 0-15.9 93.6-14.6 109.6 0.7 8.3 53.1 86.7 53.1 86.7z"/>
						<g id="Layer">
							<path id="Layer" class="s0" d="m326.3 328.7c2.3-1.7 23.1-13.7 38.9-21.4 0.2-0.1 0.2 0.1 0.1 0.1-4.8 3.2-35.9 20.2-38.9 21.4-0.1 0.1-0.2 0-0.1-0.1z"/>
							<path id="Layer" class="s0" d="m315.6 207.6c1.8-13.7 3.8-27.4 6.1-41 2.2-13.7 4.7-27.4 7.5-41q0.5-2.5 1.1-5c0-0.2 0.4-0.2 0.4 0.1-2.4 13.5-4.9 26.9-7.1 40.5-2.2 13.5-4.3 27-6.1 40.6q-0.7 5-1.4 10.1c-0.4 3.4-0.9 6.9-1 10.4 0 3.4 0.5 6.7 1.7 9.8 1.2 3.1 2.8 6 4.5 8.8 7.1 12 38.7 64.2 39.5 65.7 0.1 0.1-0.1 0.3-0.1 0.2-7.6-11.8-31.2-49.5-38.3-61.6-3.3-5.5-7-11-8-17.4-1.1-6.7 0.3-13.6 1.2-20.2z"/>
						</g>
					</g>
				</g>
				<g id="Layer">
					<g id="Layer">
						<path id="Layer" class="s9" d="m326.8 314.3c0 0 0.5 44.6 0.5 44.6-0.3 8.5-0.6 16-1.2 19.8q0 0.1 0 0.1c-0.2 1.4-0.4 2.4-0.7 2.6q0 0 0 0.1c-2.6 1.6-70.8 1.7-73.2 0.9-2.4-0.8-0.3-7.6 2.4-9.7 2.6-2.2 28.7-13.9 28.7-13.9v-44.5z"/>
						<path id="Layer" class="s4" d="m327.2 349.7c0 0 0.1 9.2 0.1 9.2-0.3 8.5-0.6 16-1.2 19.8q0 0.1 0 0.1c-0.3 1.4-0.5 2.4-0.7 2.6q0 0 0 0.1c-2.6 1.6-70.8 1.7-73.2 0.9-2.4-0.8-0.3-7.6 2.4-9.7 2.6-2.2 28.7-13.9 28.7-13.9v-9.3z"/>
						<g id="Layer">
							<path id="Layer" class="s7" d="m252.2 382.3c2.4 0.8 71.1-0.4 73.7-2.1 1-0.7 1.4-10.7 1.5-22.8q0-0.2 0-0.4l-44.3 0.3v0.8c0 0-26 12.2-28.7 14.4-2.6 2.1-4.6 9.1-2.2 9.8z"/>
							<g id="Layer">
								<path id="Layer" class="s1" d="m252.9 379.6c11.6-0.4 58.3-1.3 69.8-0.9 0.1 0 0.1 0 0 0.1-11.4 0.7-58.2 1.2-69.8 1-0.2 0-0.2-0.1 0-0.2z"/>
								<path id="Layer" class="s0" d="m279.4 358.3c4.6-1 10.2-0.4 13.7 2.8 0.1 0.1-0.1 0.3-0.2 0.3-4.5-1.4-8.7-2.2-13.5-2.6-0.3 0-0.3-0.5 0-0.5z"/>
								<path id="Layer" class="s0" d="m276.2 360.3c4.5-0.9 10.1-0.3 13.6 2.9 0.2 0.1 0 0.3-0.2 0.2-4.5-1.3-8.7-2.1-13.4-2.5-0.3-0.1-0.4-0.5 0-0.6z"/>
								<path id="Layer" class="s0" d="m272.9 362.3c4.6-0.9 10.1-0.3 13.7 2.9 0.1 0.1-0.1 0.3-0.2 0.3-4.5-1.4-8.7-2.2-13.5-2.6-0.3 0-0.3-0.5 0-0.6z"/>
							</g>
							<path id="Layer" class="s0" d="m251.1 379.9c-1.2 0.5-0.9 4.6 0 4.9 0.9 0.3 75.8-1.3 77.1-1.6 1.3-0.3 0.7-4.9-0.8-5.1-1.5-0.2-76.3 1.8-76.3 1.8z"/>
							<path id="Layer" class="s1" d="m316.2 364.9c5-2.6 9 5.1 4 7.7-4.9 2.6-8.9-5.1-4-7.7z"/>
						</g>
					</g>
					<g id="Layer">
						<path id="Layer" class="s11" d="m297 118.1q0 0 0 0.1c0.3 0.8 14.3 39.3 15.6 39.9 1.5 0.7-31 55.3-32.9 80.6-1.2 16.2 1.2 108.1 1.2 108.1h47.5c0 0-2.3-82.6-3.4-108.7-0.4-10.2 32.7-60.7 33.1-92.1 0.1-9.9-7-28-7-28z"/>
						<g id="Layer">
							<path id="Layer" class="s0" d="m324.8 237.4c0-0.5 0.3-0.6 0.3-0.2 1.1 14.2 1.4 28.3 2 42.4 0.7 14.2 0.3 17.6 1 31.7 0.3 8 0 16 0.2 24.1 0 0.1-0.2 0.1-0.2 0-1.5-14.1-3.3-90-3.3-98z"/>
							<path id="Layer" class="s0" d="m279.7 239.3c0.1-3.5 0.3-7 1-10.4 0.6-3.4 1.7-6.7 2.9-9.8 2.6-6.6 5.7-13.1 8.7-19.6q4.5-9.8 9.2-19.5 2.7-5.5 5.4-10.9c1.9-3.7 3.8-7.3 5.7-11 0.1-0.1 0.3 0 0.3 0.2-3.1 6.5-6.1 13.1-9.1 19.6-3.1 6.5-6.1 13.1-9.1 19.7-2.9 6.4-5.9 12.9-8.6 19.4-1.4 3.1-2.6 6.3-3.4 9.6-0.9 3.4-1.2 6.9-1.4 10.4-0.5 8.1-0.7 16.2-1.5 24.3 0 0.1-0.2 0.1-0.2 0-0.2-7.3-0.1-14.7 0.1-22z"/>
							<path id="Layer" class="s0" d="m284.3 337.4c2.8-0.4 23.9-1.1 41.5-0.4 0.1 0 0.1 0.2 0 0.2-5.8 0.5-38.2 0.7-41.4 0.4-0.1 0-0.2-0.2-0.1-0.2z"/>
							<g id="Layer">
								<path id="Layer" class="s0" d="m306.1 155.9c5.1 1.2 10 3.1 14.8 5.2 0.2 0.1 0.1 0.4-0.1 0.3-5-1.6-10-3-14.9-4.9-0.4-0.1-0.2-0.7 0.2-0.6z"/>
								<path id="Layer" class="s0" d="m301.3 123.4c0-0.2 0.3-0.3 0.3-0.1 0.5 5.7 1.4 10.6 2.4 15.9 0.5 2.4 3.9 15.8 8 14.4 0.7-0.3 1-1 1-2.1 0-1.3-0.6-2.8-1-4.1q-1.1-4.2-1.9-8.5c-1.1-5.3-1.6-10.6-1.5-16.1 0-0.1 0.2-0.2 0.3 0 0.7 7.5 1.7 14.8 3.5 22.1 0.9 3.5 3.3 8.6-0.4 9.5-3.7 1-7.1-7.7-7.8-10.1-1.9-6.7-2.7-14-2.9-20.9z"/>
								<path id="Layer" class="s0" d="m312 154q0.7 1.3 1.2 2.7c0.3 0.7 0.6 1.5 0.6 2.3 0 0.1-0.2 0.1-0.2 0.1-0.6-0.6-0.9-1.5-1.3-2.2-0.4-0.8-0.8-1.7-1.2-2.5-0.3-0.6 0.6-1 0.9-0.4z"/>
							</g>
							<path id="Layer" class="s0" d="m319.9 251.3c-0.2-6.7-1-13.8 1.2-20.3 1.1-3.3 2.8-6.3 4.4-9.3q2.4-4.8 4.8-9.6c6.4-12.8 12.3-25.8 17.7-39.1 2.6-6.4 4.9-13 5.8-19.8 1-7.2 0.3-14.5-1.3-21.6q-0.6-2.6-1.3-5.2c-0.1-0.1 0.1-0.2 0.2-0.1 2.1 6.7 3.6 13.6 3.7 20.6 0 6.8-1.4 13.4-3.6 19.7-2.3 6.7-5.2 13.1-8 19.5q-4.3 10-9 19.7c-3.1 6.5-6.4 12.9-9.7 19.3-1.6 3.1-3 6.2-3.6 9.7-0.7 3.5-0.6 7.1-0.4 10.6 0.5 15 1.8 64.7 2 79.6q0 2.9 0.1 5.7c0 0.2-0.3 0.2-0.3 0-0.9-14.8-2.2-64.5-2.7-79.4z"/>
							<path id="Layer" class="s0" d="m330.6 127.8c0-0.1 0.1-0.1 0.1 0 0.6 4.1 0.9 8.4 2.9 12.1 1.8 3.5 5 5.7 8.5 7.2 2 0.9 4.1 1.6 6.1 2.3 0.2 0 0.2 0.3 0 0.2-3.9-0.8-7.9-1.7-11.3-3.9-3.7-2.4-5.6-6.1-6.2-10.4-0.3-2.5-0.3-5-0.1-7.5z"/>
						</g>
					</g>
				</g>
			</g>
			<g id="Layer">
				<g id="Layer">
					<g id="Layer">
						<path id="Layer" class="s4" d="m353.5 121.1c-0.1 0.2-62.6 17.3-63.3 16.8-0.1 0-2.7-1.4-3.2-6.3-0.2-1.3 1.6-7 1.7-11.2 0.1-14.8-0.5-42.3 3.5-57.1 1.1-4 9.7-8.5 14.4-5.6 21.1 13 47 63.2 46.9 63.4z"/>
					</g>
					<g id="Layer">
						<path id="Layer" class="s7" d="m303.4 56.5c0 0 2.4 31.5 3.2 35.2 0.6 2.6 7.6 28.3 11.3 46.9 1.6 8 0.8 20.5 0.8 20.5 0 0 21.8-7.1 28.5-11.6 3.8-2.6 12.4-14 12.4-14 0 0-13.7-30.6-21.6-42-7.8-11.5-22.7-31.4-29.7-34.3-3.2-1.3-4.9-0.7-4.9-0.7z"/>
						<path id="Layer" fill-rule="evenodd" class="s0" d="m343.9 116c-0.3 1.1-0.9 3.1-2.1 3.3-1.2 0.2-1.6-1.1-1.7-2-0.2-1.4-0.1-3.3 0.4-5 0.3-1.2 0.9-2.3 1.9-2.7 2.7-1.2 1.8 5.4 1.5 6.4zm-8.1 2.4c0.9 1.8 1 3.9 0.8 5.8-0.2 1.1-0.3 3.2-1.9 2.5-0.5-0.2-0.9-0.7-1.3-1.4-0.6-1-1-2.4-1.1-3.4-0.3-1.4-0.5-3.6 0.8-4.7 1.2-0.9 2.2 0.2 2.7 1.2zm2.4-7c-0.3 0.6-0.9 1.5-1.7 1.1-0.8-0.3-1-1.5-1.1-2.3-0.1-0.7 0-2.3 0.4-3.5 0.3-1 0.8-1.8 1.8-1.6 2.2 0.2 1.1 5.1 0.6 6.3zm-15.7 44.6c-0.8 1.6-2.4 0.3-3.6-1.3 0-1.8 0-4-0.1-6.3q0.2 0.1 0.4 0.3c1 0.8 2.2 2.4 2.9 4 0.6 1.1 0.9 2.3 0.4 3.3zm7.1-0.7l-2.2 0.8c-1.4-0.9-2.7-3.3-3-4.2-0.2-0.7-0.2-1.7 0.6-2 0.8-0.3 1.8 0.5 2.3 1 0.6 0.6 1.6 1.8 2 3 0.3 0.5 0.4 1 0.3 1.4zm-5.8-54c0.9-0.1 1.8 1.3 2.2 2 0.7 1.1 1.1 2.5 1.3 3.8 0.1 0.8 0.3 2.4-0.4 3-0.9 0.7-1.7-0.1-2.3-1.2-1.3-1.5-1.9-3.7-1.9-5.6 0.1-0.7 0.1-1.9 1.1-2zm11.4 30c1.4 1.6 2.6 3.4 2.8 5.6 0.1 1-0.2 1.7-1 1.9-0.7 0.3-1.8-0.3-2.5-0.8-1.7-1.2-3.1-2.8-3.8-4.7-0.5-1.2-1.1-3 0.2-4 1.6-1.2 3.3 1 4.3 2zm4.4-6.4c1.1-0.2 2.5 2.1 3 3.5 0.5 1.8 0.8 4.3-0.7 4.9-0.7 0.4-2.3-0.8-3.1-3.6-0.8-2.6-0.1-4.6 0.8-4.8zm-29.7-44.2c-0.3 1.2-1.1 2.4-1.7 3.2-0.5 0.7-1.3 1.7-2.3 2.2-0.2-1.6-0.4-3.5-0.5-5.6q0.7-0.7 1.5-1.3c0.9-0.7 2.5-2 3.1-0.4 0.2 0.5 0.1 1.2-0.1 1.9zm3.1-5.4c0.2-2.1 0.6-4.3 2.1-5.9 0.6-0.8 1.4-1.1 2-0.6 0.8 0.3 1.1 1.5 1.2 2.4 0.4 2 0.1 4.1-0.7 6-0.6 1.2-1.5 2.8-3.1 2.5-1.9-0.3-1.6-3-1.5-4.4zm-3.7-1.5c-1.3 2.3-3.3 3.2-4 2.7q-0.2-0.1-0.3-0.4 0 0 0 0-0.1-0.6-0.1-1.2c0.1-1 0.5-2.2 0.9-3 1-1.6 2.6-3.5 4-2.9 0.8 0.3 1 2.2-0.5 4.8zm46 58.3c0.3 0.7 0.7 2 0.2 2.7-0.5 0.7-1.3 0.2-1.8-0.2-0.5-0.4-1.3-1.3-1.9-2.3-0.7-1.1-1-2.4-0.3-3.4 1.5-2 3.4 2.3 3.8 3.2zm-21.3-33.3c0 0.6 0 1.8-0.6 2.2-0.6 0.3-1.1-0.2-1.3-0.7-0.3-0.5-0.7-1.4-0.9-2.3-0.2-1.1-0.1-2.1 0.7-2.7 1.7-1.1 2 2.7 2.1 3.5z"/>
					</g>
				</g>
				<g id="Layer">
					<g id="Layer">
						<g id="Layer">
							<path id="Layer" class="s9" d="m296.7 72.7c3.6-0.9 6.6-10.1 6.7-15.1 0-0.4-1.3-2-3.4-5.3-1.2-2-2.6-4.2-3.6-6.4l-11.9 10.1c0 0 3.6 3.8 5.5 7.6q0.2 0.4 0.3 0.9 0.1 0.1 0.1 0.1c0.6 1.8 2.9 8.9 6.3 8.1z"/>
						</g>
						<path id="Layer" class="s0" d="m291.9 66.6q-0.4 0.2-0.7 0.3c-0.4-0.9-0.7-1.8-0.8-2.3q0-0.1-0.1-0.1-0.1-0.5-0.3-0.9c-1.9-3.8-5.5-7.6-5.5-7.6l11.9-10.1q0.3 0.7 0.7 1.4c1.3 4.9 2.9 15-5.2 19.3z"/>
					</g>
					<g id="Layer">
						<g id="Layer">
							<path id="Layer" class="s9" d="m290.7 31.4c3.8 4.1 8.3 19.1 6.5 23.9-2.6 6.9-10.4 11.5-17.2 7.5-6.6-3.9-12.1-23.6-9.8-28.3 3.5-6.9 14.7-9 20.5-3.1z"/>
						</g>
						<g id="Layer">
							<g id="Layer">
								<path id="Layer" class="s0" d="m281.6 47.1c0 0 0.1 0 0.1 0.1 0.3 1 0.9 2.1 1.9 2.1 0 0 0 0 0 0-1.2 0.3-1.9-1.2-2-2.2z"/>
								<path id="Layer" class="s0" d="m282.1 45.8c1.5-0.8 2.8 2.4 1.4 3.1-1.4 0.6-2.7-2.6-1.4-3.1z"/>
							</g>
							<g id="Layer">
								<path id="Layer" class="s0" d="m276 49.5c-0.1-0.1-0.1 0.1-0.1 0.1 0.5 1 0.8 2.1 0 2.8 0 0.1 0 0.1 0.1 0.1 1-0.6 0.5-2.2 0-3z"/>
								<path id="Layer" class="s0" d="m274.7 48.8c-1.7 0.6-0.5 3.8 1 3.3 1.5-0.5 0.3-3.7-1-3.3z"/>
							</g>
							<path id="Layer" class="s0" d="m282.5 43.2c-0.5 0.1-0.9 0.1-1.4 0.1-0.5 0-0.9 0.1-1.4-0.1-0.3-0.2-0.4-0.6-0.3-0.9 0.3-0.6 0.9-0.8 1.6-0.9 0.7-0.1 1.2 0 1.8 0.4 0.6 0.4 0.3 1.3-0.3 1.4z"/>
							<path id="Layer" class="s0" d="m272.4 46.7c0.4-0.3 0.7-0.6 1.1-0.9 0.4-0.3 0.8-0.5 0.9-1 0.1-0.3-0.1-0.7-0.3-0.8-0.7-0.3-1.3 0-1.8 0.3-0.6 0.4-0.9 0.9-1.1 1.6-0.2 0.6 0.6 1.1 1.2 0.8z"/>
							<path id="Layer" class="s0" d="m286.4 55.3c-0.1 0.3-0.2 0.7-0.5 0.9-0.4 0.2-0.8 0.2-1.2 0.2 0 0-0.1 0 0 0 0.4 0.3 1 0.3 1.4 0.1 0.4-0.3 0.5-0.8 0.4-1.2 0-0.1 0-0.1-0.1 0z"/>
							<g id="Layer">
								<g id="Layer">
									<path id="Layer" class="s0" d="m284.2 52.8c-0.2 1.1-0.8 1.8-1.6 2.4q-0.6 0.3-1.2 0.5-0.1 0.1-0.2 0.1-0.1 0-0.2 0c-0.2 0.1-0.3 0-0.3-0.1q-0.1 0-0.1-0.1 0 0 0 0v-0.1c-0.3-0.7-0.7-1.9-0.7-1.9-0.3 0.2-1.4 1.5-1.5 1-1.2-3.3-2.5-7-2.9-10.5 0-0.2 0.1-0.2 0.2-0.1 1.2 3.2 1.9 6.5 3.1 9.7 0.3-0.3 0.9-1 1.3-1.1 0.2 0 0.8 2.3 0.9 2.6q0 0 0.1 0c1.3-0.3 2.1-1.1 3-2.5 0-0.1 0.1 0 0.1 0.1z"/>
								</g>
							</g>
						</g>
						<g id="Layer">
							<path id="Layer" class="s0" d="m296.2 45.9c-2.9 0.6-5.3-6.4-5.3-6.4 0 0-3.8-0.2-7-6.2 0 0-0.3 7.1-12.3 9.4 0 0-1.5-2.5-1.1-6.2 0 0-0.6 2.7-0.8 7.1 0 0-5.9-8.6 1.1-14.7 2.8-2.4 7.8-3.7 16.5-2.5 0 0 0-4.9 1.1-4.6 1 0.3 0.7 5 0.7 5 0 0 3-2.1 3.8-1.6 0.6 0.4-2.3 2.3-2.3 2.3 0 0 5.6 0 6.7 6.1 1 5.5 0.3 12.1-1.1 12.3z"/>
							<path id="Layer" class="s0" d="m289.7 27.7c2.9-1 6.3 0.3 7.7 3.1 0.8 1.5 1 3.4 1 5.2 0 1.8-0.4 3.6-0.9 5.4-0.1 0.1-0.2 0.1-0.2 0 0.5-1.6 0.6-3.4 0.5-5.1 0-1.6-0.2-3.3-0.7-4.8-1.2-2.9-4.3-4.4-7.3-3.6-0.1 0-0.2-0.1-0.1-0.2z"/>
							<path id="Layer" class="s0" d="m276.9 25.2c2-0.2 4.2-0.1 6.3 0.2 1.9 0.3 3.9 0.8 5.7 1.7 0.1 0.1 0 0.2-0.1 0.2-3.6-1.2-7.6-1.5-11.3-1.3-3.6 0.1-7.4 1.4-9 4.8 0 0.1-0.1 0-0.1 0 1.3-3.5 5-5.2 8.5-5.6z"/>
						</g>
						<g id="Layer">
							<path id="Layer" class="s9" d="m293.5 44.6c0 0 0.9-6 3.5-5.8 2.6 0.1 3.4 7.7 1.4 9.8-1.9 2-3.9 0.3-3.9 0.3z"/>
							<path id="Layer" class="s0" d="m297.2 41c0-0.1 0.1 0 0 0-1.3 1.5-1.4 3.5-1.3 5.4 0.2-0.9 0.7-1.5 1.8-1.3 0.1 0 0.1 0.1 0 0.1-0.7 0.2-1.2 0.5-1.3 1.3-0.2 0.5-0.2 1.1-0.2 1.7 0 0.2-0.3 0.2-0.3 0q0 0 0 0c-1.1-2.1-0.9-5.9 1.3-7.2z"/>
						</g>
					</g>
				</g>
				<g id="Layer">
					<g id="Layer">
						<path id="Layer" class="s9" d="m316.1 71.8c5.1 17.8 8.3 51.2 5.8 57.3-2.3 5.4-19.4 17.9-29.3 24.6-3.2 2.1-18.7-22.4-15.2-24.6 4.8-2.9 22.2-14.3 22.6-15.6 0.5-1.3 2-26.4 4.7-40.8 2.4-13 9.5-7.6 11.4-0.9z"/>
						<g id="Layer">
							<path id="Layer" class="s9" d="m244.6 158.1c2.4 2.5 8-4 8-4 0 0-0.5 2.3 0.6 4.3 1.4 2.2 5.5 1.1 5.5 1.1 0 0-0.1 2.5 1.4 4.5 1.5 2 5.8 1.5 5.8 1.5 0 0 1.2 2.4 3.7 3.2 4.2 1.4 9.1-3.4 12.7-5.7 3.9-2.5 9.3-7.8 11.2-10.6l-14.5-23.7c0 0-20.7 5.2-24.2 8.9-2.9 3.2-13.9 16.7-10.2 20.5z"/>
							<g id="Layer">
								<path id="Layer" class="s0" d="m252.6 154c2.3-4.2 5.6-7.7 8.8-11.1 0.1-0.1 0.2 0 0.1 0.1-3.2 3.3-5.6 7.6-8.7 11.1-0.1 0.1-0.2 0-0.2-0.1z"/>
								<path id="Layer" class="s0" d="m258.6 159.2c0.5-0.9 1.4-1.6 2.1-2.4q1.3-1.2 2.5-2.3 2.6-2.3 5.2-4.4c0.1-0.1 0.2 0 0.1 0.1q-2.5 2.2-4.9 4.6-1.2 1.2-2.4 2.4c-0.8 0.8-1.5 1.7-2.4 2.2-0.1 0.1-0.3-0.1-0.2-0.2z"/>
								<path id="Layer" class="s0" d="m266 165.5c0.4-0.9 1.3-1.5 2-2.1q1.2-1 2.4-2c1.5-1.4 3.1-2.8 4.6-4.2 0.1-0.1 0.2 0 0.1 0.1-1.5 1.4-3 2.9-4.5 4.4q-1.2 1-2.3 2.1c-0.7 0.6-1.4 1.4-2.2 1.7-0.1 0.1-0.1 0-0.1 0z"/>
							</g>
						</g>
					</g>
					<g id="Layer">
						<path id="Layer" class="s7" d="m325.2 112.8l-27.6 0.3c0 0 3.6-30.4 7.4-43.6 3.2-11.1 9.8-10.1 13.5 4.3 3.4 13.6 6.7 39 6.7 39z"/>
						<path id="Layer" class="s0" d="m324.7 109q-0.1-0.1-0.1-0.1c-1.3-1.5-1.9-3.7-1.9-5.6 0.1-0.6 0.1-1.8 0.9-2 0.4 3.1 0.8 5.7 1.1 7.7zm-21.5-25.3c0.7-1.9 2.2-3.3 3.7-4.5 0.9-0.7 2.5-2 3.1-0.4 0.2 0.5 0.1 1.2-0.1 1.9-0.3 1.2-1.1 2.4-1.7 3.2-0.8 1.2-2.3 2.8-4 2.6-1.5-0.2-1.4-1.7-1-2.8zm9.8-8.4c0.2-2.1 0.6-4.3 2.1-5.9 0.6-0.8 1.4-1.1 2-0.6 0.8 0.3 1.1 1.5 1.2 2.4 0.4 2 0.1 4.1-0.7 6-0.6 1.2-1.5 2.8-3.1 2.5-1.9-0.3-1.6-3-1.5-4.4zm-7.7 1.2c-0.9-0.6-0.2-3.3 0.5-4.6 1-1.6 2.6-3.5 4-2.9 0.8 0.3 1 2.2-0.5 4.8-1.3 2.3-3.3 3.2-4 2.7zm-1.7 28.2c-0.1 0.7-0.5 2.1-1.4 2.3-0.7 0.3-1.1-0.5-1.3-1.1-0.2-0.7-0.3-1.9-0.2-3 0-1.4 0.5-2.6 1.7-3 2.3-0.8 1.4 3.9 1.2 4.8z"/>
						<path id="Layer" class="s0" d="m301.3 107.4c1.7-0.3 3.5-0.3 5.3-0.4 1.8-0.1 3.6-0.1 5.4-0.2 1.8 0 9.1 0.1 10.9 0.1 0.1 0 0.1 0.2 0 0.2-1.8 0.1-9.1 0.5-10.8 0.5-1.8 0.1-3.6 0.1-5.4 0.1-1.8 0-3.6 0-5.4-0.2-0.1 0-0.1-0.1 0-0.1z"/>
						<g id="Layer">
							<g id="Layer">
								<path id="Layer" class="s0" d="m319.6 78.8c2.5 11.2 4.9 22.6 5.7 34.1q-1.5 0-2.9-0.1 1.4-0.1 2.8-0.1c-1.8-10.4-4-23-5.6-33.9z"/>
							</g>
							<g id="Layer">
								<path id="Layer" class="s0" d="m320.9 80.3c0.4 1.7 0.5 3.5 0 5.2-0.2-1.8-0.2-3.5 0-5.2z"/>
							</g>
						</g>
					</g>
				</g>
			</g>
		</g>
	</g>
	<g id="Plant">
		<g id="Layer">
			<g id="Layer">
				<g id="Layer">
					<path id="Layer" class="s7" d="m58.2 320.7c0 0 17.1-3.9 26.5-12.5 9.4-8.7 14.6-24.1 14.6-24.1 0 0-10.1 1.8-19.2 5-1.5 1.6-4.4 5-5.8 8.2 0 0-0.3-3.4 0-5.9-2.5 1.2-4.6 2.4-6.1 3.7-7.8 6.8-10 25.6-10 25.6z"/>
					<g id="Layer">
						<path id="Layer" class="s0" d="m88.6 291.6c2.3-1.6 4.7-3.2 7-4.8 0.2-0.1 0-0.3-0.1-0.2-4.4 2.6-8.8 5.4-13 8.4q-2.2 1.5-4.3 3.1 0.2-0.2 0.3-0.5 0.8-1.2 1.6-2.5c1.1-1.7 2.3-3.4 3.6-4.9 0.1 0 0-0.1 0 0-1.4 1.5-2.7 3-3.9 4.7q-0.9 1.1-1.6 2.3-0.4 0.7-0.8 1.3-0.1 0.3-0.3 0.5-3.3 2.6-6.4 5.4-1.9 1.8-3.7 3.7c0.7-2.1 1.3-4.1 2-6.2 0.1-0.1 0-0.1-0.1 0-0.7 2.1-1.5 4.3-2.1 6.5q-2 2.1-3.7 4.4 0-0.2 0-0.3 0.3-1.2 0.6-2.4 0.6-2.3 1.4-4.6c1.1-3.1 2.5-6.2 4.6-8.7 0.1 0 0-0.1-0.1-0.1-3.3 4-5.3 8.7-6.5 13.7q-0.3 1.1-0.5 2.2-0.2 0.6-0.3 1.2-0.8 1-1.5 2.1c-3 4.4-5.3 9.3-7.2 14.2-2.2 5.6-4 11.3-5.5 17.1-0.1 0.1 0.1 0.1 0.1 0 3.4-10 6.8-20.1 12.5-29.1q1.9-2.8 3.9-5.4c2.9-0.2 5.7-0.8 8.4-1.7q4.4-1.5 8.3-4c1.5-1 2.9-2.1 4.3-3.2 0-0.1 0-0.2-0.1-0.1-2.3 1.9-5.1 3.5-7.9 4.7-2.7 1.3-5.6 2.3-8.6 2.9q-1.9 0.4-3.8 0.7 2.4-3 5-5.6 0.9-0.9 1.8-1.7c2-1.5 4.1-2.6 6.3-3.6 2.8-1.4 5.6-2.8 8.4-4.2 1.5-0.8 3.1-1.6 4.7-2.4 0-0.1 0-0.1-0.1-0.1-2.8 1.3-5.7 2.6-8.5 3.9-2.7 1.2-5.4 2.5-7.9 3.9q-0.2 0.1-0.4 0.2 3.5-3 7.2-5.8 3.4-2.6 6.9-5z"/>
						<path id="Layer" class="s0" d="m87.6 300.4c-1.4 0.6-2.8 1.2-4.1 1.8-1.5 0.7-2.8 1.4-4.1 2.2-0.1 0.1-0.1 0.2 0 0.1 1.4-0.6 2.8-1.2 4.1-1.9 1.4-0.7 2.8-1.5 4.2-2.1 0 0 0-0.1-0.1-0.1z"/>
					</g>
				</g>
				<g id="Layer">
					<path id="Layer" class="s7" d="m2.7 234.5c0 0 4.8 5.5 5.1 14.2 0 1.6-0.2 3.7-0.4 6.2 6.4 3.4 11.2 9.5 11.2 9.5-3.7-2.1-8.6-3-11.3-2.7 0.1 1.7 0.3 3.4 0.6 5.2 1.2-0.1 3.5 0 7.3 1.4 0 0-3.7-0.1-6.5 1.3 3 9.7 12.1 19.6 37.1 23.9 0 0 4.8-17-4.5-35.2-7.4-14.8-38.6-23.8-38.6-23.8z"/>
					<g id="Layer">
						<path id="Layer" class="s0" d="m54.4 335q-0.6-6.2-1.6-12.4c-1.3-8.3-2.9-16.4-5-24.5q-1.5-5.7-3.6-11.2c0.1-0.6 0-1.3 0.1-2q0-1.2 0-2.4-0.1-2.4-0.3-4.8c-0.2-3.1-0.7-6.3-1.5-9.4-0.5-1.7-1-3.5-1.5-5.3 0 0-0.1 0-0.1 0.1 0.9 3 1.4 6.2 1.8 9.3q0.7 4.7 0.9 9.4 0 1.3 0 2.6 0 0.6 0 1.1-1.9-4.5-4.2-8.7c-2.6-4.5-5.5-8.8-8.6-12.8 0-0.5-0.1-1-0.2-1.4q-0.2-0.9-0.4-1.7-0.4-1.7-0.8-3.4c-0.6-2.3-1.5-4.5-2.2-6.7 0-0.1-0.1 0-0.1 0 0.7 2.2 1.1 4.5 1.6 6.8q0.4 1.7 0.8 3.3 0.2 0.9 0.3 1.7 0 0.1 0 0.1-1.5-1.9-3.1-3.7c-4.7-5.6-10-10.8-15.2-15.9q-1-1-2-1.9c-0.1 0-0.1 0-0.1 0.1 5 5.2 10 10.6 14.7 16.1q1.7 2 3.3 4-0.8-0.5-1.7-1.1-2.2-1.4-4.4-2.7-2.3-1.3-4.7-2.5c-1.6-0.8-3.3-1.4-4.8-2.3-0.1-0.1-0.1 0.1-0.1 0.1 1.6 0.6 3.1 1.6 4.6 2.5q2.3 1.4 4.5 2.8 2.2 1.4 4.4 2.8c1.2 0.8 2.4 1.6 3.7 2.4 2.9 3.7 5.6 7.6 8 11.6q2.3 3.9 4.2 7.9-0.5-0.2-0.9-0.4-1.2-0.5-2.3-1-2.2-1-4.4-2c-2.9-1.2-5.7-2.3-8.5-3.6-1.5-0.8-3-1.6-4.4-2.5-0.1-0.1-0.2 0-0.1 0.1 5.1 3.5 10.9 6 16.6 8.5l2.4 1.1c0.7 0.3 1.4 0.6 2.1 0.9q2.5 5.6 4.2 11.6c2.3 7.9 4 16.1 5.4 24.2 1.5 8.2 2.4 16.4 3.2 24.7q0.1 1.5 0.3 3c0 0.5 0.7 0.5 0.7 0-0.1-4.2-0.5-8.4-1-12.5z"/>
						<path id="Layer" class="s0" d="m39.2 265.9c-0.4-2.6-1.1-5.1-1.8-7.5 0-0.1-0.1-0.1-0.1 0 0.6 2.4 1.1 4.9 1.5 7.4q0.7 3.8 1.3 7.6c0 0.1 0 0.1 0 0q-0.2-3.8-0.9-7.5z"/>
						<path id="Layer" class="s0" d="m28.4 272.8c-1.7-1.2-3.6-2.1-5.4-3.1q-1.4-0.7-2.8-1.4c-0.9-0.4-1.9-0.8-2.8-1.3-0.1 0-0.2 0.1-0.1 0.1 0.9 0.5 1.8 1 2.7 1.5q1.4 0.8 2.8 1.5c1.8 1 3.6 2.1 5.5 2.9 0.2 0.1 0.3-0.1 0.1-0.2z"/>
					</g>
				</g>
				<g id="Layer">
					<path id="Layer" class="s12" d="m58.5 291.1c0 0 15.8-3.8 23.1-14.4 6.9-10.2 9.2-27.4 9.4-29-0.3 1.4-3.6 16.5-14.4 23.6-8.2 5.4-16.2 9.8-18.1 19.8z"/>
					<path id="Layer" class="s0" d="m73.1 263.7c-2.8 2.7-4.9 5.9-5.8 9.6 0 0.1 0 0.1 0 0.1 1.2-3.6 3.2-7 5.9-9.6 0.1 0 0-0.1-0.1-0.1z"/>
					<g id="Layer">
						<path id="Layer" class="s7" d="m58.5 291.1c0 0 15.8-3.8 23.1-14.4 6.9-10.2 9.2-27.4 9.4-29q0-0.1 0-0.1c0 0-7.6 10.8-15.6 13.6-8 2.7-19.2 12.2-16.9 29.9z"/>
						<path id="Layer" class="s0" d="m88.2 253.6c-1.5 2.9-3 5.7-4.9 8.3-1.8 2.6-4.1 4.8-6.5 6.7-2.2 1.8-4.4 3.3-6.6 5q0-0.1 0-0.1 0.6-0.9 1.3-1.8c0.9-1.1 1.9-2.2 2.9-3.3 2-2.1 4-4.2 5.8-6.5q1.4-2 2.5-4.1c0-0.1-0.1-0.1-0.1-0.1-2.6 5.4-7.7 8.8-11.4 13.3q-0.8 1-1.4 2c-0.3 0.5-0.7 1.1-0.9 1.6-2 1.7-3.9 3.4-5.4 5.5q0.2-1.6 0.6-3.1c0.4-1.4 0.9-2.7 1.7-4 0-0.1-0.1-0.1-0.1-0.1-0.8 1.3-1.4 2.6-1.9 4-0.3 1.1-0.5 2.3-0.5 3.4q-0.1 0-0.1 0-1.1 1.6-2.1 3.4 0.1-0.5 0.2-1 0.5-2.4 1.1-4.7c0.8-3.2 1.9-6.3 3.8-9 0 0-0.1-0.1-0.1 0-1.8 2.6-3.2 5.6-4.2 8.7q-0.8 2.3-1.3 4.7-0.3 1.2-0.5 2.4-0.1 0.6-0.2 1.2c-1.6 3.4-2.8 7.1-3.7 10.7-1.6 6.6-2.6 13.3-3.3 20-0.8 7.1-1.2 14.2-1.1 21.3q0 1.3 0.1 2.6c0 0.3 0.4 0.3 0.4 0.1 0.1-3.5 0.2-7.1 0.4-10.6q0.3-5.2 0.9-10.5c0.7-6.8 1.8-13.7 3.3-20.4 1.3-5.8 2.9-11.6 6.1-16.7q2.4-3.8 5.7-6.8c2.2-2 4.7-3.7 7-5.6 2.3-1.8 4.6-3.8 6.4-6.1 2-2.6 3.6-5.4 5-8.2q0.6-1.1 1.2-2.2c0 0-0.1-0.1-0.1 0z"/>
						<path id="Layer" class="s0" d="m85.4 255.9c-1 2.1-2.2 4.2-3.5 6.2 0 0 0.1 0.1 0.1 0 1.4-1.9 2.5-4 3.6-6.2 0 0-0.1-0.1-0.2 0z"/>
					</g>
				</g>
				<g id="Layer">
					<path id="Layer" class="s7" d="m0.5 284.1c0 0-0.3 22.5 13.1 28.9 13.5 6.5 20.7 1.1 29.8 3.3q0 0 0 0c-0.3-0.5-6.9-9.9-17.2-12.5-10.7-2.7-22.5-10.4-25.7-19.7z"/>
					<path id="Layer" class="s10" d="m0.5 284.1c0 0-0.3 22.5 13.1 28.9 13.5 6.5 20.7 1.1 29.8 3.3q0 0 0 0c-0.4-0.2-7-3.5-15.3-4.5-8.4-1-24.6-6.6-27.6-27.7z"/>
					<g id="Layer">
						<path id="Layer" class="s0" d="m44.3 316.7c-1.6-1.4-3.4-2.7-5.3-3.6q-0.5-0.2-0.9-0.4-0.2-0.3-0.5-0.5-0.6-0.6-1.2-1.2-1.3-1.1-2.7-2c-2.3-1.3-4.7-2.2-7-3.4 0 0-0.1 0.1 0 0.1 1.1 0.6 2.2 1.2 3.3 1.9 1 0.6 2.1 1.2 3.2 1.9q1.4 0.9 2.6 2 0.4 0.3 0.7 0.6-2.2-0.7-4.5-1.2c-2.5-0.5-5-0.8-7.4-1.4q-1.8-0.4-3.6-0.9c-1.1-0.9-2.2-1.8-3.3-2.8q-1.9-1.8-3.5-3.9c0 0-0.1 0.1-0.1 0.1 1.7 2.2 3.5 4.3 5.6 6.1q-0.9-0.3-1.8-0.7c-4.5-2.1-8.6-5.4-11.4-9.6-0.1 0-0.2 0-0.1 0.1 2.4 3.6 5.6 6.6 9.3 8.9q2.7 1.7 5.8 2.8c2.4 0.8 4.8 1.2 7.3 1.7 2.4 0.4 4.8 0.9 7.1 1.7 2.2 0.7 4.2 1.8 6 3.1 3.4 2.6 6.1 6.2 8 10 2.6 5.1 3.8 10.8 4.5 16.5 0 0.2 0.4 0.2 0.4 0-0.7-9.5-3.2-19.3-10.5-25.9z"/>
						<path id="Layer" class="s0" d="m28.7 309.4c-0.7-1.1-1.7-1.9-2.7-2.5-1.3-0.8-2.5-1.6-3.3-2.7-0.1-0.1-0.2 0-0.1 0q1.2 1.6 2.9 2.6c1.1 0.7 2.3 1.5 3.1 2.6 0.1 0.1 0.2 0 0.1 0z"/>
					</g>
				</g>
			</g>
			<g id="Layer">
				<g id="Layer">
					<path id="Layer" class="s8" d="m35.9 333.3l0.6 12.4 1.8 37.7h28.2l1.9-37.7 0.6-12.4z"/>
					<path id="Layer" class="s0" d="m35.9 333.3l0.6 12.4h31.9l0.6-12.4z"/>
				</g>
				<path id="Layer" class="s8" d="m71 339.9h-37.1v-11.8h37.1z"/>
			</g>
		</g>
	</g>
</svg>